<svg xmlns="http://www.w3.org/2000/svg" viewBox="0 0 884.65 415.42"><defs><style>.cls-1{fill:#008fe5;}.cls-2{fill:#445462;}.cls-3{fill:#6786ac;}</style></defs><title>Asset 1</title><g id="Layer_2" data-name="Layer 2"><g id="Layer_1-2" data-name="Layer 1"><polygon class="cls-1" points="409.15 113.16 406.89 113.16 406.89 21.39 440.46 0 475.16 21.38 475.16 95.82 472.9 95.82 472.9 22.64 440.49 2.67 409.15 22.63 409.15 113.16"/><path class="cls-2" d="M84.11,409.48a13.21,13.21,0,1,1,13.21-13.21A13.22,13.22,0,0,1,84.11,409.48Zm0-24.15a10.95,10.95,0,1,0,11,10.94A11,11,0,0,0,84.11,385.33Z"/><path class="cls-2" d="M186.32,409.48a13.21,13.21,0,1,1,13.21-13.21A13.22,13.22,0,0,1,186.32,409.48Zm0-24.15a10.95,10.95,0,1,0,11,10.94A11,11,0,0,0,186.32,385.33Z"/><path class="cls-2" d="M77.59,396.27H75.33a8.79,8.79,0,0,1,8.78-8.78v2.26A6.53,6.53,0,0,0,77.59,396.27Z"/><path class="cls-2" d="M84.11,405.06V402.8a6.53,6.53,0,0,0,6.52-6.53h2.26A8.79,8.79,0,0,1,84.11,405.06Z"/><path class="cls-2" d="M200.51,397.4h-3.24v-1.13a10.95,10.95,0,0,0-21.89,0v1.13H95.06v-1.13a11,11,0,0,0-21.9,0v1.13H69.53a22.14,22.14,0,0,1-12.42-3.7c-3.31-2.24-5.35-4.95-6.07-8.07-2.16-9.36,1.73-16.95,9.68-18.89,1.8-.44,3.68-.77,5.68-1.11,6.59-1.13,13.41-2.3,17.72-7.81,2.49-3.2,11-5.84,21.81-6.75,7-.6,19.88-.46,29.42-.25A33.59,33.59,0,0,1,150.8,355c6.63,3.67,18.81,9.81,26.28,9.81h.18c15.1-.21,34.08.74,38.81,6.41a18.14,18.14,0,0,1,3.57,13.12,15.31,15.31,0,0,1-5.31,10.47C213.55,395.94,210.59,397.4,200.51,397.4Zm-1-2.26h1c9.41,0,11.56-1.29,11.92-1.59l0-.15.28-.23a13,13,0,0,0,4.63-9.06,15.76,15.76,0,0,0-3.06-11.44c-3.19-3.84-16.69-5.88-37-5.6h-.22c-7.58,0-19.05-5.48-27.37-10.1a31.36,31.36,0,0,0-14.41-3.89c-9.49-.21-22.25-.35-29.18.24-11.49,1-18.54,3.73-20.22,5.89-4.85,6.2-12.43,7.5-19.12,8.65-2,.33-3.8.65-5.52,1.07-6.76,1.66-9.91,8-8,16.19.59,2.55,2.32,4.8,5.14,6.7a19.76,19.76,0,0,0,11.15,3.32H71a13.21,13.21,0,0,1,26.32,0h75.89a13.21,13.21,0,0,1,26.32,0Z"/><path class="cls-3" d="M84.11,394.65a1.63,1.63,0,1,0,1.63,1.62A1.63,1.63,0,0,0,84.11,394.65Z"/><path class="cls-2" d="M84.11,398.11a1.84,1.84,0,1,1,1.83-1.84A1.84,1.84,0,0,1,84.11,398.11Zm0-3.26a1.43,1.43,0,1,0,1.42,1.42A1.43,1.43,0,0,0,84.11,394.85Z"/><path class="cls-2" d="M195.08,396.27h-2.26a6.53,6.53,0,0,0-6.52-6.52v-2.26A8.79,8.79,0,0,1,195.08,396.27Z"/><path class="cls-2" d="M186.3,405.06a8.79,8.79,0,0,1-8.78-8.79h2.26a6.53,6.53,0,0,0,6.52,6.53Z"/><path class="cls-3" d="M184.67,396.27a1.63,1.63,0,1,0,1.63-1.62A1.63,1.63,0,0,0,184.67,396.27Z"/><path class="cls-2" d="M186.3,398.11a1.84,1.84,0,1,1,1.83-1.84A1.84,1.84,0,0,1,186.3,398.11Zm0-3.26a1.43,1.43,0,1,0,1.42,1.42A1.43,1.43,0,0,0,186.3,394.85Z"/><path class="cls-2" d="M128.33,388.87H97.15l-.21-.86c-1.28-5.29-10.22-7.38-10.32-7.41l.51-2.2c.4.09,9.53,2.24,11.75,8.21h29.45Z"/><polygon class="cls-2" points="161.4 388.87 127.41 388.87 123.96 372.94 126.17 372.46 129.24 386.61 161.4 386.61 161.4 388.87"/><polygon class="cls-2" points="217.65 379.07 208.24 379.07 202 370.81 215.2 370.81 215.2 373.07 206.54 373.07 209.36 376.81 217.65 376.81 217.65 379.07"/><polygon class="cls-2" points="61.72 378.41 51.94 378.41 51.94 376.15 58.21 376.15 57.23 374 53.71 374 53.71 371.74 58.69 371.74 61.72 378.41"/><rect class="cls-2" x="121.68" y="356.35" width="2.26" height="12.92" transform="translate(-81.18 38.62) rotate(-13.48)"/><path class="cls-2" d="M155.32,370.93H85.75V364l.55-.33a8.52,8.52,0,0,0,2-2.08c1.47-1.87,3.5-4.44,7.61-5.46,6.08-1.51,32.26-1.25,40-.83,7.24.41,12.4,3.36,17.86,6.48,1.17.67,2.39,1.36,3.62,2,6.31,3.41,10.51,3.82,10.55,3.82l1,.09v1.35h-1.16l-.07.81c-.18,0-4.66-.43-11.42-4.08-1.26-.68-2.49-1.38-3.67-2.06-5.22-3-10.15-5.81-16.87-6.18-8.58-.48-33.79-.61-39.28.76-3.37.83-5,2.87-6.39,4.67A12.16,12.16,0,0,1,88,365.26v3.41h67.32Z"/><path class="cls-2" d="M586.12,221.12h-3.28v-2.26h3.28Zm-6.57,0h-3.28v-2.26h3.28Zm-6.57,0h-3.29v-2.26H573Zm-6.57,0h-3.29v-2.26h3.29Zm-6.58,0h-3.28v-2.26h3.28Zm-6.57,0H550v-2.26h3.29Zm-6.57,0H543.4v-2.26h3.29Zm-6.57,0h-3.29v-2.26h3.29Z"/><rect class="cls-2" x="270.33" y="363.05" width="139.35" height="2.26"/><rect class="cls-2" x="585.88" y="237.89" width="2.26" height="21.27"/><rect class="cls-2" x="492.41" y="237.89" width="2.26" height="52.18"/><polygon class="cls-2" points="437.82 236.28 435.56 236.28 435.56 129.88 323.71 129.88 323.71 176.03 321.45 176.03 321.45 127.62 437.82 127.62 437.82 236.28"/><rect class="cls-2" x="314.08" y="150.25" width="138.22" height="2.26"/><path class="cls-2" d="M597.67,239H482.76l21-42h76Zm-111.25-2.26H594.26l-16-37.52H505.18Z"/><path class="cls-2" d="M744.7,345.58a11.14,11.14,0,0,1-10-6.24,11.12,11.12,0,0,1-20,0,11.12,11.12,0,0,1-20,0,11.12,11.12,0,0,1-20,0,11.12,11.12,0,0,1-20,0,11.12,11.12,0,0,1-21.11-4.88v-7.61l13.22-37H742.6l13.22,37v7.61A11.13,11.13,0,0,1,744.7,345.58Zm-8.86-11.12a8.87,8.87,0,0,0,17.73,0v-7.22L741,292.07H648.48l-12.56,35.17v7.22a8.86,8.86,0,0,0,17.72,0h0c0-.15,0-.31,0-.46s0-.23,0-.27l2.25.16V334a.76.76,0,0,1,0,.15c0,.1,0,.2,0,.28h0a8.87,8.87,0,0,0,17.73,0h0c0-.15,0-.31,0-.46s0-.23,0-.27l2.26.16V334a.76.76,0,0,0,0,.15c0,.1,0,.2,0,.28h0a8.86,8.86,0,0,0,17.72,0h0c0-.14,0-.29,0-.43s0-.26,0-.3l2.25.16V334c0,.06,0,.11,0,.16a2.54,2.54,0,0,0,0,.26h0a8.87,8.87,0,0,0,17.73,0h0c0-.16,0-.31,0-.46s0-.24,0-.27l2.26.16V334a.76.76,0,0,0,0,.15c0,.1,0,.2,0,.27h0a8.86,8.86,0,0,0,17.72,0h0c0-.15,0-.31,0-.46s0-.23,0-.27l2.25.16V334c0,.05,0,.1,0,.15s0,.2,0,.28Z"/><polygon class="cls-2" points="655.9 334.45 653.64 334.45 653.64 327.14 661.24 291.83 663.45 292.31 655.9 327.38 655.9 334.45"/><polygon class="cls-2" points="675.89 334.45 673.63 334.45 673.63 327.14 677.18 291.31 679.43 291.54 675.89 327.31 675.89 334.45"/><rect class="cls-2" x="693.61" y="291.42" width="2.26" height="43.03"/><polygon class="cls-2" points="715.86 334.45 713.6 334.45 713.6 327.3 710.7 292 712.95 291.81 715.86 327.26 715.86 334.45"/><polygon class="cls-2" points="735.84 334.45 733.58 334.45 733.58 327.36 726.83 291.8 729.05 291.37 735.84 327.15 735.84 334.45"/><rect class="cls-2" x="628.23" y="325.05" width="134.52" height="2.26"/><rect class="cls-2" x="753.46" y="349.39" width="2.26" height="59.31"/><rect class="cls-2" x="633.55" y="349.39" width="2.26" height="59.31"/><polygon class="cls-1" points="711.88 402.68 709.62 402.68 709.62 356.97 679.22 356.97 679.22 402.68 676.96 402.68 676.96 354.71 711.88 354.71 711.88 402.68"/><path class="cls-2" d="M665,382.32H645.58V362.87H665Zm-17.19-2.26h14.93V365.13H647.84Z"/><path class="cls-2" d="M672,389.63h-3.28v-2.26H672Zm-6.57,0h-3.29v-2.26h3.29Zm-6.57,0h-3.29v-2.26h3.29Zm-6.58,0H649v-2.26h3.28Zm-6.57,0h-3.28v-2.26h3.28Z"/><path class="cls-2" d="M741.75,382.32H722.3V362.87h19.45Zm-17.19-2.26h14.93V365.13H724.56Z"/><path class="cls-2" d="M748.71,389.63h-3.29v-2.26h3.29Zm-6.58,0h-3.28v-2.26h3.28Zm-6.57,0h-3.28v-2.26h3.28Zm-6.57,0H725.7v-2.26H729Zm-6.57,0h-3.29v-2.26h3.29Z"/><rect class="cls-2" x="698.93" y="377.81" width="5.8" height="2.26"/><rect class="cls-2" x="646.71" y="372.76" width="17.19" height="2.26"/><rect class="cls-2" x="723.43" y="372.76" width="17.19" height="2.26"/><rect class="cls-2" x="623.93" y="407.57" width="141.83" height="2.26"/><path class="cls-2" d="M450.32,241.27h-2.26v-2.86h2.26Zm0-6.14h-2.26v-3.29h2.26Zm0-6.57h-2.26v-3.29h2.26Zm0-6.58h-2.26V218.7h2.26Zm0-6.57h-2.26v-3.29h2.26Zm0-6.57h-2.26v-3.29h2.26Zm0-6.57h-2.26V199h2.26Zm0-6.58h-2.26v-3.28h2.26Zm0-6.57h-2.26v-3.29h2.26Zm0-6.57h-2.26v-3.29h2.26Zm0-6.58h-2.26v-3.28h2.26Z"/><rect class="cls-2" x="540.28" y="407.57" width="57.24" height="2.26"/><rect class="cls-2" x="33.05" y="407.57" width="490.74" height="2.26"/><rect class="cls-2" x="3.91" y="363.05" width="44.72" height="2.26"/><path class="cls-2" d="M421,388h-.32v-2.26H421Zm-3.61,0h-3.29v-2.26h3.29Zm-6.57,0h-3.29v-2.26h3.29Zm-6.58,0H401v-2.26h3.28Zm-6.57,0h-3.28v-2.26h3.28Zm-6.57,0h-3.29v-2.26h3.29Zm-6.57,0h-3.29v-2.26h3.29ZM378,388h-3.28v-2.26H378Zm-6.57,0h-3.28v-2.26h3.28Zm-6.57,0h-3.29v-2.26h3.29Zm-6.57,0H355v-2.26h3.29Zm-6.58,0h-3.28v-2.26h3.28Zm-6.57,0h-3.29v-2.26h3.29Zm-6.57,0h-3.29v-2.26h3.29ZM332,388H328.7v-2.26H332Zm-6.58,0h-3.28v-2.26h3.28Zm-6.57,0h-3.29v-2.26h3.29Zm-6.57,0H309v-2.26h3.29Zm-6.57,0h-3.29v-2.26h3.29Zm-6.58,0h-3.28v-2.26h3.28Zm-6.57,0h-3.29v-2.26h3.29ZM286,388h-3.29v-2.26H286Zm-6.57,0h-3.29v-2.26h3.29Zm-6.58,0h-3.28v-2.26h3.28Zm-6.57,0H263v-2.26h3.29Zm-6.57,0H256.4v-2.26h3.29Zm-6.58,0h-3.28v-2.26h3.28Zm-6.57,0h-3.28v-2.26h3.28ZM240,388h-3.29v-2.26H240Zm-6.57,0h-3.29v-2.26h3.29Zm-6.58,0h-3.28v-2.26h3.28Z"/><polygon class="cls-2" points="866.84 411.45 864.59 411.45 864.59 400.4 832.69 400.4 832.69 388.21 800.79 388.21 800.79 376.02 764.75 376.02 764.75 373.76 803.05 373.76 803.05 385.95 834.95 385.95 834.95 398.14 866.84 398.14 866.84 411.45"/><path class="cls-2" d="M620.64,388h-.28v-2.26h.28Zm-3.57,0h-3.28v-2.26h3.28Zm-6.57,0h-3.29v-2.26h3.29Zm-6.57,0h-3.29v-2.26h3.29Zm-6.57,0h-3.29v-2.26h3.29Zm-6.58,0H587.5v-2.26h3.28Zm-6.57,0h-3.29v-2.26h3.29Zm-6.57,0h-3.29v-2.26h3.29Zm-6.57,0h-3.29v-2.26h3.29Zm-6.58,0h-3.28v-2.26h3.28Zm-6.57,0h-3.29v-2.26h3.29Zm-6.57,0h-3.29v-2.26h3.29Z"/><path class="cls-2" d="M42.8,386.17H39.51v-2.26H42.8Zm-6.57,0H32.94v-2.26h3.29Zm-6.57,0H26.37v-2.26h3.29Zm-6.58,0H19.8v-2.26h3.28Zm-6.57,0H13.22v-2.26h3.29Zm-6.57,0H6.65v-2.26H9.94Z"/><polygon class="cls-1" points="132.25 295.53 129.99 295.53 129.99 215.19 198.84 215.19 198.84 153.96 228.53 135.04 281.03 135.04 281.03 258.06 278.77 258.06 278.77 137.3 229.19 137.3 201.1 155.2 201.1 217.45 132.25 217.45 132.25 295.53"/><path class="cls-2" d="M265.6,163.21H248.34V146H265.6Zm-15-2.26h12.74V148.21H250.6Z"/><path class="cls-2" d="M265.6,193.52H248.34V176.26H265.6Zm-15-2.26h12.74V178.52H250.6Z"/><path class="cls-2" d="M265.6,223.83H248.34V206.57H265.6Zm-15-2.26h12.74V208.83H250.6Z"/><path class="cls-2" d="M265.6,254.14H248.34V236.88H265.6Zm-15-2.26h12.74V239.14H250.6Z"/><path class="cls-2" d="M232.36,254.14H215.1V236.88h17.26Zm-15-2.26H230.1V239.14H217.36Z"/><polygon class="cls-2" points="199.12 254.14 140.88 254.14 140.88 236.88 154.56 236.88 154.56 239.14 143.14 239.14 143.14 251.88 196.86 251.88 196.86 239.14 180.9 239.14 180.9 236.88 199.12 236.88 199.12 254.14"/><polygon class="cls-2" points="199.12 284.45 140.88 284.45 140.88 267.19 149.15 267.19 149.15 269.45 143.14 269.45 143.14 282.19 196.86 282.19 196.86 269.45 187.83 269.45 187.83 267.19 199.12 267.19 199.12 284.45"/><polygon class="cls-2" points="722.79 278.29 720.53 278.29 720.53 273.67 735.09 273.67 735.09 258.02 720.53 258.02 720.53 241.24 735.09 241.24 735.09 225.59 720.53 225.59 720.53 208.81 735.09 208.81 735.09 193.16 720.53 193.16 720.53 181.65 633.06 181.65 633.06 179.39 722.79 179.39 722.79 190.9 737.35 190.9 737.35 211.07 722.79 211.07 722.79 223.33 737.35 223.33 737.35 243.5 722.79 243.5 722.79 255.76 737.35 255.76 737.35 275.93 722.79 275.93 722.79 278.29"/><polygon class="cls-1" points="616.72 247.1 614.46 247.1 614.46 172.48 703.22 172.48 703.22 174.74 616.72 174.74 616.72 247.1"/><rect class="cls-2" x="729.06" y="209.94" width="2.26" height="14.52"/><rect class="cls-2" x="729.06" y="241.76" width="2.26" height="14.52"/><polygon class="cls-2" points="711.56 211.06 696.98 211.06 696.98 208.8 709.3 208.8 709.3 193.15 637.24 193.15 637.24 208.8 678.3 208.8 678.3 211.06 634.98 211.06 634.98 190.89 711.56 190.89 711.56 211.06"/><polygon class="cls-2" points="711.56 242.89 634.98 242.89 634.98 222.72 649.55 222.72 649.55 224.98 637.24 224.98 637.24 240.63 709.3 240.63 709.3 224.98 699.4 224.98 699.4 222.72 711.56 222.72 711.56 242.89"/><polygon class="cls-2" points="711.56 274.72 696.98 274.72 696.98 272.46 709.3 272.46 709.3 256.81 637.24 256.81 637.24 272.46 656.49 272.46 656.49 274.72 634.98 274.72 634.98 254.55 711.56 254.55 711.56 274.72"/><path class="cls-2" d="M696.94,274.72h-3.29v-2.26h3.29Zm-6.58,0h-3.28v-2.26h3.28Zm-6.57,0h-3.28v-2.26h3.28Zm-6.57,0h-3.29v-2.26h3.29Zm-6.57,0h-3.29v-2.26h3.29Zm-6.58,0h-3.28v-2.26h3.28Z"/><rect class="cls-2" x="445.57" y="10.83" width="2.26" height="70.99"/><path class="cls-2" d="M418.1,107.41h-2.26v-3.29h2.26Zm0-6.58h-2.26V97.55h2.26Zm0-6.57h-2.26V91h2.26Zm0-6.57h-2.26V84.4h2.26Zm0-6.57h-2.26V77.83h2.26Zm0-6.58h-2.26V71.26h2.26Zm0-6.57h-2.26V64.68h2.26Zm0-6.57h-2.26V58.11h2.26Zm0-6.58h-2.26V51.54h2.26Zm0-6.57h-2.26V45h2.26Zm0-6.57h-2.26V38.39h2.26Zm0-6.57h-2.26V31.82h2.26Zm0-6.58h-2.26V25.25h2.26Z"/><path class="cls-2" d="M427.87,92.79h-2.26V89.5h2.26Zm0-6.57h-2.26V82.93h2.26Zm0-6.57h-2.26V76.36h2.26Zm0-6.58h-2.26V69.79h2.26Zm0-6.57h-2.26V63.21h2.26Zm0-6.57h-2.26V56.64h2.26Zm0-6.57h-2.26V50.07h2.26Zm0-6.58h-2.26V43.5h2.26Zm0-6.57h-2.26V36.92h2.26Zm0-6.57h-2.26V30.35h2.26Zm0-6.58h-2.26V23.78h2.26Zm0-6.57h-2.26V17.21h2.26Z"/><path class="cls-2" d="M438.27,83.08H436V79.8h2.26Zm0-6.57H436V73.23h2.26Zm0-6.57H436V66.65h2.26Zm0-6.57H436V60.08h2.26Zm0-6.58H436V53.51h2.26Zm0-6.57H436V46.94h2.26Zm0-6.57H436V40.36h2.26Zm0-6.57H436V33.79h2.26Zm0-6.58H436V27.22h2.26Zm0-6.57H436V20.65h2.26Zm0-6.57H436V14.07h2.26Zm0-6.57H436V7.5h2.26Z"/><polygon class="cls-2" points="360.52 105.67 358.26 105.67 358.26 73.36 371.97 57.12 378.62 57.12 378.62 38.26 401.89 38.26 401.89 40.52 380.88 40.52 380.88 59.38 373.02 59.38 360.52 74.19 360.52 105.67"/><polygon class="cls-2" points="537.96 109.27 535.7 109.27 535.7 79.07 529.91 79.07 529.91 71.23 524.12 71.23 524.12 62.91 518.34 62.91 518.34 54.59 512.55 54.59 512.55 46.27 503.38 46.27 503.38 39.41 489.54 39.41 489.54 91.55 479.43 91.55 479.43 89.29 487.28 89.29 487.28 37.15 505.64 37.15 505.64 44.02 514.8 44.02 514.8 52.34 520.59 52.34 520.59 60.65 526.38 60.65 526.38 68.97 532.17 68.97 532.17 76.81 537.96 76.81 537.96 109.27"/><polygon class="cls-1" points="544.75 194.27 542.5 194.27 542.5 129.88 509.63 129.88 509.63 103.05 445.08 103.05 445.08 137.7 442.82 137.7 442.82 100.8 511.89 100.8 511.89 127.62 544.75 127.62 544.75 194.27"/><path class="cls-2" d="M538,148.39h-78v-9.33h78Zm-75.78-2.26H535.7v-4.81H462.18Z"/><path class="cls-2" d="M538,155.47h-78v-9.34h78Zm-75.78-2.26H535.7v-4.82H462.18Z"/><path class="cls-2" d="M538,173.82h-78v-9.33h78Zm-75.78-2.26H535.7v-4.81H462.18Z"/><path class="cls-2" d="M538,180.89h-78v-9.33h78Zm-75.78-2.26H535.7v-4.81H462.18Z"/><polygon class="cls-2" points="462.18 198.11 459.93 198.11 459.93 189.91 537.96 189.91 537.96 194.58 535.7 194.58 535.7 192.17 462.18 192.17 462.18 198.11"/><polygon class="cls-2" points="490.59 206.31 459.93 206.31 459.93 196.98 496.83 196.98 496.83 199.24 462.18 199.24 462.18 204.05 490.59 204.05 490.59 206.31"/><rect class="cls-2" x="443.95" y="112.03" width="60.15" height="2.26"/><path class="cls-2" d="M422.64,129.88h-86V112h86Zm-83.75-2.26h81.49V114.29H338.89Z"/><rect class="cls-2" x="378.51" y="59.22" width="2.26" height="46.45"/><path class="cls-2" d="M393.76,114.29H365.51v-9.75h28.25Zm-26-2.26H391.5V106.8H367.77Z"/><rect class="cls-2" x="380.75" y="43.11" width="15.07" height="2.26"/><rect class="cls-2" x="380.75" y="49.77" width="15.07" height="2.26"/><rect class="cls-2" x="380.75" y="56.42" width="15.07" height="2.26"/><rect class="cls-2" x="380.75" y="63.08" width="15.07" height="2.26"/><rect class="cls-2" x="380.75" y="69.74" width="15.07" height="2.26"/><rect class="cls-2" x="380.75" y="76.39" width="15.07" height="2.26"/><rect class="cls-2" x="380.75" y="83.05" width="15.07" height="2.26"/><rect class="cls-2" x="380.75" y="89.7" width="15.07" height="2.26"/><rect class="cls-2" x="380.75" y="96.36" width="15.07" height="2.26"/><path class="cls-2" d="M415.05,124.48h-3.28v-2.26h3.28Zm-6.57,0h-3.29v-2.26h3.29Zm-6.57,0h-3.29v-2.26h3.29Zm-6.58,0h-3.28v-2.26h3.28Zm-6.57,0h-3.28v-2.26h3.28Zm-6.57,0H378.9v-2.26h3.29Zm-6.57,0h-3.29v-2.26h3.29Zm-6.58,0h-3.28v-2.26H369Zm-6.57,0h-3.28v-2.26h3.28Zm-6.57,0h-3.29v-2.26h3.29Zm-6.57,0H346v-2.26h3.29Z"/><path class="cls-2" d="M341.9,177.35h-9.19V157h9.19ZM335,175.09h4.67V159.21H335Z"/><path class="cls-2" d="M355.77,177.35h-9.2V157h9.2Zm-6.94-2.26h4.68V159.21h-4.68Z"/><path class="cls-2" d="M369.63,177.35h-9.19V157h9.19Zm-6.93-2.26h4.67V159.21H362.7Z"/><path class="cls-2" d="M383.5,177.35h-9.19V157h9.19Zm-6.94-2.26h4.68V159.21h-4.68Z"/><path class="cls-2" d="M397.36,177.35h-9.19V157h9.19Zm-6.93-2.26h4.67V159.21h-4.67Z"/><path class="cls-2" d="M411.23,177.35H402V157h9.19Zm-6.93-2.26H409V159.21H404.3Z"/><path class="cls-2" d="M425.09,177.35H415.9V157h9.19Zm-6.93-2.26h4.67V159.21h-4.67Z"/><path class="cls-2" d="M341.9,204.47h-9.19v-20.4h9.19ZM335,202.21h4.67V186.33H335Z"/><path class="cls-2" d="M355.77,204.47h-9.2v-20.4h9.2Zm-6.94-2.26h4.68V186.33h-4.68Z"/><path class="cls-2" d="M369.63,204.47h-9.19v-20.4h9.19Zm-6.93-2.26h4.67V186.33H362.7Z"/><path class="cls-2" d="M383.5,204.47h-9.19v-20.4h9.19Zm-6.94-2.26h4.68V186.33h-4.68Z"/><path class="cls-2" d="M397.36,204.47h-9.19v-20.4h9.19Zm-6.93-2.26h4.67V186.33h-4.67Z"/><path class="cls-2" d="M411.23,204.47H402v-20.4h9.19Zm-6.93-2.26H409V186.33H404.3Z"/><path class="cls-2" d="M425.09,204.47H415.9v-20.4h9.19Zm-6.93-2.26h4.67V186.33h-4.67Z"/><polygon class="cls-1" points="480.43 260.57 478.17 260.57 478.17 246.7 443 246.7 396.23 210.29 349.47 246.7 314.3 246.7 314.3 256.25 312.04 256.25 312.04 244.44 348.69 244.44 395.62 207.9 396.85 207.9 443.77 244.44 480.43 244.44 480.43 260.57"/><path class="cls-2" d="M395.71,251.76a13.3,13.3,0,1,1,13.3-13.3A13.3,13.3,0,0,1,395.71,251.76Zm0-24.33a11,11,0,1,0,11,11A11,11,0,0,0,395.71,227.43Z"/><path class="cls-2" d="M395.71,246.08a7.62,7.62,0,0,1,0-15.23v2.26a5.36,5.36,0,1,0,5.36,5.35h2.26A7.63,7.63,0,0,1,395.71,246.08Z"/><polygon class="cls-2" points="344.97 237.41 305.48 237.41 305.48 235.15 344.2 235.15 378.21 208.97 379.59 210.76 344.97 237.41"/><polygon class="cls-2" points="350.22 226.3 347.96 226.3 347.96 216.33 323 216.33 323 186.02 285.03 186.02 285.03 183.76 325.26 183.76 325.26 214.07 350.22 214.07 350.22 226.3"/><path class="cls-2" d="M318.19,214.86h-2.26v-3.28h2.26Zm0-6.57h-2.26V205h2.26Zm0-6.57h-2.26v-3.29h2.26Zm0-6.58h-2.26v-3.28h2.26Z"/><path class="cls-2" d="M308,214.86h-2.26v-3.28H308Zm0-6.57h-2.26V205H308Zm0-6.57h-2.26v-3.29H308Zm0-6.58h-2.26v-3.28H308Z"/><path class="cls-2" d="M297.81,214.86h-2.26v-3.28h2.26Zm0-6.57h-2.26V205h2.26Zm0-6.57h-2.26v-3.29h2.26Zm0-6.58h-2.26v-3.28h2.26Z"/><path class="cls-2" d="M287.62,214.86h-2.26v-3.28h2.26Zm0-6.57h-2.26V205h2.26Zm0-6.57h-2.26v-3.29h2.26Zm0-6.58h-2.26v-3.28h2.26Z"/><path class="cls-2" d="M606.63,261.48h-2.25V122a31.49,31.49,0,0,0-63,0h-2.26a33.74,33.74,0,0,1,67.48,0Z"/><path class="cls-2" d="M548.58,121h-2.25a26.59,26.59,0,0,1,26.56-26.56v2.26A24.33,24.33,0,0,0,548.58,121Z"/><path class="cls-2" d="M592,121h-2.26a16.87,16.87,0,0,0-16.86-16.85v-2.26A19.14,19.14,0,0,1,592,121Z"/><path class="cls-2" d="M563.39,120l-2.25-.22A11.82,11.82,0,0,1,574,109.2l-.21,2.25A9.56,9.56,0,0,0,563.39,120Z"/><rect class="cls-2" x="555.96" y="120.85" width="49.54" height="2.26"/><rect class="cls-2" x="572.89" y="134.9" width="32.61" height="2.26"/><rect class="cls-2" x="550.28" y="144.47" width="55.23" height="2.26"/><rect class="cls-2" x="550.28" y="154.04" width="55.23" height="2.26"/><rect class="cls-2" x="572.89" y="163.61" width="32.61" height="2.26"/><rect class="cls-2" x="550.28" y="173.17" width="55.23" height="2.26"/><rect class="cls-2" x="550.28" y="182.74" width="55.23" height="2.26"/><polygon class="cls-2" points="668.02 167.15 665.76 167.15 665.76 149.23 636.09 149.23 636.09 129.88 610.6 129.88 610.6 127.62 638.35 127.62 638.35 146.97 668.02 146.97 668.02 167.15"/><polygon class="cls-2" points="301.15 176.22 298.89 176.22 298.89 90.24 314.3 79.67 314.3 89.7 336.18 89.7 336.18 69.74 344.95 69.74 344.95 108.16 342.69 108.16 342.69 72 338.43 72 338.43 91.96 312.04 91.96 312.04 83.96 301.15 91.43 301.15 176.22"/><rect class="cls-2" x="307.37" y="99.01" width="2.26" height="41.6"/><rect class="cls-2" x="319.22" y="99.01" width="2.26" height="26.1"/><rect class="cls-2" x="331.08" y="99.01" width="2.26" height="14.14"/><rect class="cls-2" x="230.1" y="148.65" width="2.26" height="72.66"/><rect class="cls-2" x="215.1" y="164.74" width="2.26" height="39.36"/><polygon class="cls-2" points="191.6 215.2 189.34 215.2 189.34 183.75 178.29 183.75 178.29 205.59 176.03 205.59 176.03 181.49 191.6 181.49 191.6 215.2"/><polygon class="cls-2" points="143.14 216.32 140.88 216.32 140.88 193.97 163.52 193.97 163.52 209.03 161.26 209.03 161.26 196.23 143.14 196.23 143.14 216.32"/><polygon class="cls-2" points="218.58 288.28 208.99 288.28 222.65 260.85 324.04 260.85 326.62 266.04 324.6 267.04 322.64 263.11 224.05 263.11 212.63 286.02 218.58 286.02 218.58 288.28"/><path class="cls-2" d="M242.76,325.87h-10V298.38h10ZM235,323.61h5.5v-23H235Z"/><path class="cls-2" d="M250.53,325.87h-10V298.38h10Zm-7.77-2.26h5.51v-23h-5.51Z"/><path class="cls-2" d="M271.46,325.87h-10V298.38h10Zm-7.76-2.26h5.5v-23h-5.5Z"/><path class="cls-2" d="M279.23,325.87h-10V298.38h10Zm-7.77-2.26H277v-23h-5.51Z"/><path class="cls-2" d="M300.17,325.87h-10V298.38h10Zm-7.77-2.26h5.51v-23H292.4Z"/><path class="cls-2" d="M307.93,325.87h-10V298.38h10Zm-7.76-2.26h5.5v-23h-5.5Z"/><rect class="cls-1" x="231.93" y="332.49" width="79.73" height="2.26"/><polygon class="cls-2" points="223.24 340.41 220.98 340.41 220.98 286.02 313.17 286.02 313.17 288.28 223.24 288.28 223.24 340.41"/><rect class="cls-2" x="323.72" y="331.4" width="2.26" height="23.28"/><path class="cls-2" d="M474.48,334a10.36,10.36,0,0,1-10.34-10,24.09,24.09,0,0,1-10.8-10.4l2-1.06a21.72,21.72,0,0,0,10.4,9.7l.7.31,0,.77a1,1,0,0,1,0,.17v.13a8.08,8.08,0,1,0,16.16,0s0-.09,0-.13,0-.11,0-.17l0-.77.7-.31a21.62,21.62,0,0,0,7.2-34.41l-.39-.43.12-.56a16.51,16.51,0,0,0,.32-3.22,16,16,0,1,0-32,0,16.51,16.51,0,0,0,.32,3.22l-2.21.45a18.06,18.06,0,0,1-.37-3.67,18.25,18.25,0,1,1,36.49,0,19.1,19.1,0,0,1-.26,3.11A23.89,23.89,0,0,1,484.81,324,10.36,10.36,0,0,1,474.48,334Z"/><path class="cls-2" d="M453.34,313.64a25.44,25.44,0,0,1-1.34-3l2.13-.77a20.79,20.79,0,0,0,1.21,2.73Zm-2.27-6.33a24.43,24.43,0,0,1-.45-3.42l2.26-.13a21.23,21.23,0,0,0,.4,3.09Zm1.85-6.67-2.25-.2a24.31,24.31,0,0,1,.54-3.4l2.2.51A21.37,21.37,0,0,0,452.92,300.64Zm1.42-6.06-2.1-.83a24,24,0,0,1,1.49-3.11l2,1.12A21.44,21.44,0,0,0,454.34,294.58Z"/><rect class="cls-2" x="476.42" y="336.15" width="2.26" height="12.59" transform="translate(-30.77 47.6) rotate(-5.53)"/><rect class="cls-2" x="465.55" y="341.32" width="12.59" height="2.26" transform="translate(83.87 777.63) rotate(-84.25)"/><path class="cls-2" d="M474.17,320a17.07,17.07,0,0,1-17-17h2.26a14.78,14.78,0,1,0,29.56,0h2.26A17.06,17.06,0,0,1,474.17,320Z"/><path class="cls-2" d="M423,334a10.36,10.36,0,0,1-10.34-10,24.14,24.14,0,0,1-10.8-10.4l2-1.06a21.72,21.72,0,0,0,10.4,9.7l.7.31,0,.77a.91.91,0,0,1,0,.17v.13a8.08,8.08,0,0,0,16.16,0c0-.05,0-.09,0-.13s0-.11,0-.17l0-.77.7-.31a21.62,21.62,0,0,0,7.2-34.41l-.39-.43.12-.56a15.84,15.84,0,0,0,.32-3.22,16,16,0,1,0-32,0,16.51,16.51,0,0,0,.32,3.22l-2.21.45a18.06,18.06,0,0,1-.37-3.67,18.25,18.25,0,1,1,36.49,0,18,18,0,0,1-.26,3.11A23.89,23.89,0,0,1,433.35,324,10.36,10.36,0,0,1,423,334Z"/><path class="cls-2" d="M401.88,313.64a25.44,25.44,0,0,1-1.34-3l2.13-.77a20.79,20.79,0,0,0,1.21,2.73Zm-2.27-6.33a24.43,24.43,0,0,1-.45-3.42l2.26-.13a22.7,22.7,0,0,0,.4,3.09Zm1.85-6.67-2.25-.2a24.31,24.31,0,0,1,.54-3.4l2.2.51A22.85,22.85,0,0,0,401.46,300.64Zm1.42-6.06-2.1-.83a24,24,0,0,1,1.49-3.11l2,1.12A21.44,21.44,0,0,0,402.88,294.58Z"/><polygon class="cls-2" points="429.37 364.67 417.01 364.67 419.89 336.07 422.14 336.3 419.51 362.4 426.88 362.4 424.36 336.29 426.61 336.07 429.37 364.67"/><path class="cls-2" d="M422.71,320a17.06,17.06,0,0,1-17-17h2.25a14.78,14.78,0,0,0,29.56,0h2.26A17.06,17.06,0,0,1,422.71,320Z"/><path class="cls-1" d="M338.55,334a10.36,10.36,0,0,1-10.33-10,24,24,0,0,1-10.8-10.4l2-1.06a21.75,21.75,0,0,0,10.41,9.7l.7.31,0,.77c0,.06,0,.11,0,.17s0,.08,0,.13a8.08,8.08,0,0,0,16.16,0v-.13a.91.91,0,0,1,0-.17l0-.77.7-.31a21.62,21.62,0,0,0,7.2-34.41l-.39-.43.12-.56a16.51,16.51,0,0,0,.32-3.22,16,16,0,1,0-32,0,15.77,15.77,0,0,0,.32,3.22l-2.21.45a18.06,18.06,0,0,1-.37-3.67,18.25,18.25,0,1,1,36.49,0,19.1,19.1,0,0,1-.26,3.11A23.9,23.9,0,0,1,348.88,324,10.35,10.35,0,0,1,338.55,334Z"/><path class="cls-1" d="M317.42,313.64a22.57,22.57,0,0,1-1.34-3l2.12-.77a22.2,22.2,0,0,0,1.21,2.73Zm-2.27-6.33a24.43,24.43,0,0,1-.45-3.42l2.26-.13a21.23,21.23,0,0,0,.4,3.09Zm1.85-6.67-2.25-.2a22.92,22.92,0,0,1,.54-3.4l2.2.51A21.37,21.37,0,0,0,317,300.64Zm1.42-6.06-2.11-.83a24,24,0,0,1,1.49-3.11l2,1.12A20.24,20.24,0,0,0,318.42,294.58Z"/><polygon class="cls-2" points="344.91 364.67 332.55 364.67 335.43 336.07 337.68 336.3 335.04 362.4 342.42 362.4 339.89 336.29 342.14 336.07 344.91 364.67"/><path class="cls-2" d="M338.25,320a17.06,17.06,0,0,1-17-17h2.26a14.78,14.78,0,1,0,29.56,0h2.26A17.06,17.06,0,0,1,338.25,320Z"/><path class="cls-2" d="M369.63,354.68h-2.26v-33.4a25.42,25.42,0,0,1,25.4-25.4v2.26a23.17,23.17,0,0,0-23.14,23.14Z"/><rect class="cls-2" x="361.57" y="269.74" width="41.31" height="2.26"/><rect class="cls-2" x="368.5" y="276.75" width="33.25" height="2.26"/><path class="cls-2" d="M283.22,364H281a8.49,8.49,0,0,1,7.23-8.38,9.31,9.31,0,0,1-.16-1.74,9.58,9.58,0,0,1,17-6.12,5.73,5.73,0,0,1,8.6,5h-2.26a3.47,3.47,0,0,0-5.83-2.56l-1,.91-.72-1.13a7.32,7.32,0,0,0-13.5,3.93,7.19,7.19,0,0,0,.42,2.41l.54,1.55-1.64-.05h-.14A6.22,6.22,0,0,0,283.22,364Z"/><rect class="cls-2" x="414.54" y="363.05" width="15.07" height="2.26"/><polygon class="cls-2" points="552.89 300.59 551.27 299.01 593.98 255.03 635.02 299.03 633.37 300.57 593.95 258.3 552.89 300.59"/><polygon class="cls-2" points="553.21 363.54 550.95 363.54 550.95 306.05 636.98 306.05 636.98 314.48 634.72 314.48 634.72 308.31 553.21 308.31 553.21 363.54"/><path class="cls-2" d="M577,365.31H559.55V334.23H577Zm-15.18-2.26h12.92V336.49H561.81Z"/><path class="cls-2" d="M577,325.32H557.61V317.7H577Zm-17.12-2.26h14.86V320H559.87Z"/><path class="cls-2" d="M603.66,325.32H584.27V317.7h19.39Zm-17.13-2.26H601.4V320H586.53Z"/><polygon class="cls-2" points="623.49 325.32 610.94 325.32 610.94 317.7 629.19 317.7 629.19 319.96 613.2 319.96 613.2 323.06 623.49 323.06 623.49 325.32"/><path class="cls-2" d="M593.14,290.21a6.95,6.95,0,1,1,7-6.95A7,7,0,0,1,593.14,290.21Zm0-11.65a4.7,4.7,0,1,0,4.69,4.7A4.71,4.71,0,0,0,593.14,278.56Z"/><polygon class="cls-2" points="624.34 288.03 622.08 288.03 622.08 269.3 615.57 269.3 615.57 278.62 613.31 278.62 613.31 267.04 624.34 267.04 624.34 288.03"/><path class="cls-2" d="M603.66,351H589.71V334.23h13.95ZM592,348.73h9.43V336.49H592Z"/><path class="cls-2" d="M615.35,351h-14V334.23h14Zm-11.69-2.26h9.43V336.49h-9.43Z"/><rect class="cls-2" x="492.41" y="314.93" width="2.26" height="29.23"/><polygon class="cls-1" points="511.89 344.95 509.63 344.95 509.63 251.88 524.93 251.88 524.93 336.18 522.67 336.18 522.67 254.14 511.89 254.14 511.89 344.95"/><polygon class="cls-1" points="538.24 339.39 535.98 339.39 535.98 251.88 551.27 251.88 551.27 291.2 549.01 291.2 549.01 254.14 538.24 254.14 538.24 339.39"/><polygon class="cls-1" points="564.58 280.37 562.32 280.37 562.32 251.88 577.62 251.88 577.62 266.54 575.36 266.54 575.36 254.14 564.58 254.14 564.58 280.37"/><path class="cls-2" d="M545.58,361.37h-2.26a11.14,11.14,0,0,0-2-6.38l-.78-1.12,1.24-.55a4.85,4.85,0,1,0-5.26-8l-1,.91-.73-1.13a9.84,9.84,0,0,0-17.6,8.54l.54,1.54-1.64,0h-.23a8.26,8.26,0,0,0-3.81.91l-.71.36-.58-.54a11.64,11.64,0,0,0-5.38-2.72l-1.54-.35.83-1.34a3.52,3.52,0,1,0-6.51-1.84,3.19,3.19,0,0,0,.08.75l.19.87-.8.39a2.91,2.91,0,0,0-1.57,2l-2.2-.5a5.17,5.17,0,0,1,2.05-3.09c0-.14,0-.27,0-.41a5.78,5.78,0,0,1,11.55,0,5.61,5.61,0,0,1-.26,1.68,13.74,13.74,0,0,1,4.53,2.41,10.65,10.65,0,0,1,2.93-.77,12,12,0,0,1-.28-2.54,12.11,12.11,0,0,1,21.62-7.5,7.06,7.06,0,0,1,3.8-1.11,7.11,7.11,0,0,1,4,13A13.35,13.35,0,0,1,545.58,361.37Z"/><polygon class="cls-2" points="215.98 310.85 103.65 310.85 103.65 298.57 218.62 298.57 218.62 300.83 105.91 300.83 105.91 308.59 215.98 308.59 215.98 310.85"/><path class="cls-2" d="M117.82,317.24a7.52,7.52,0,0,1-7.52-7.52h2.26a5.26,5.26,0,0,0,10.52,0h2.26A7.52,7.52,0,0,1,117.82,317.24Z"/><path class="cls-2" d="M130.6,317.24a7.53,7.53,0,0,1-7.52-7.52h2.26a5.27,5.27,0,0,0,10.53,0h2.26A7.53,7.53,0,0,1,130.6,317.24Z"/><path class="cls-2" d="M143.39,317.24a7.52,7.52,0,0,1-7.52-7.52h2.26a5.26,5.26,0,0,0,10.52,0h2.26A7.52,7.52,0,0,1,143.39,317.24Z"/><path class="cls-2" d="M156.17,317.24a7.53,7.53,0,0,1-7.52-7.52h2.26a5.27,5.27,0,0,0,10.53,0h2.25A7.52,7.52,0,0,1,156.17,317.24Z"/><path class="cls-2" d="M169,317.24a7.52,7.52,0,0,1-7.52-7.52h2.25a5.27,5.27,0,0,0,10.53,0h2.26A7.52,7.52,0,0,1,169,317.24Z"/><path class="cls-2" d="M181.74,317.24a7.52,7.52,0,0,1-7.52-7.52h2.26a5.26,5.26,0,1,0,10.52,0h2.26A7.52,7.52,0,0,1,181.74,317.24Z"/><path class="cls-2" d="M194.53,317.24a7.53,7.53,0,0,1-7.53-7.52h2.26a5.27,5.27,0,0,0,10.53,0h2.26A7.53,7.53,0,0,1,194.53,317.24Z"/><path class="cls-2" d="M207.31,317.24a7.52,7.52,0,0,1-7.52-7.52h2.26a5.26,5.26,0,0,0,10.52,0h2.26A7.52,7.52,0,0,1,207.31,317.24Z"/><rect class="cls-2" x="108.43" y="309.72" width="2.26" height="42.05"/><rect class="cls-2" x="128.64" y="322.59" width="2.26" height="25.58"/><rect class="cls-2" x="147.82" y="322.59" width="2.26" height="29.18"/><rect class="cls-2" x="167" y="322.59" width="2.26" height="35.64"/><rect class="cls-2" x="186.17" y="322.59" width="2.26" height="25.58"/><rect class="cls-2" x="205.35" y="322.59" width="2.26" height="23.55"/><rect class="cls-2" x="115.04" y="335.05" width="105.95" height="2.26"/><path class="cls-2" d="M533.79,399.39H520v-2.26h11.54V387a12.52,12.52,0,0,0-9-12l-16.57-4.75L489.5,353.82a13.45,13.45,0,0,0-9.6-4H444a13.32,13.32,0,0,0-13.31,13.31v8.92l-.56.33a16.23,16.23,0,0,0-8,14v10.77h7.88v2.26H419.91v-13a18.49,18.49,0,0,1,8.56-15.57v-7.64A15.59,15.59,0,0,1,444,347.58H479.9a15.74,15.74,0,0,1,11.2,4.64l16,16,16,4.59A14.79,14.79,0,0,1,533.79,387Z"/><rect class="cls-2" x="458.25" y="397.13" width="33.91" height="2.26"/><path class="cls-2" d="M430.32,399.86h-2.25a16.4,16.4,0,0,1,16.38-16.38v2.26A14.14,14.14,0,0,0,430.32,399.86Z"/><path class="cls-2" d="M444.45,410.12a10,10,0,1,1,10-10A10,10,0,0,1,444.45,410.12Zm0-17.67a7.71,7.71,0,1,0,7.71,7.71A7.71,7.71,0,0,0,444.45,392.45Z"/><path class="cls-2" d="M505.68,410.12a10,10,0,1,1,10-10A10,10,0,0,1,505.68,410.12Zm0-17.67a7.71,7.71,0,1,0,7.71,7.71A7.71,7.71,0,0,0,505.68,392.45Z"/><path class="cls-2" d="M496.66,372.55H441.45v-9.3a7.13,7.13,0,0,1,7.12-7.12h25.8a14.12,14.12,0,0,1,10,4.15Zm-53-2.26h47.5l-8.41-8.41a11.87,11.87,0,0,0-8.43-3.49h-25.8a4.87,4.87,0,0,0-4.86,4.86Z"/><rect class="cls-2" x="470.5" y="371.42" width="2.26" height="26.84"/><rect class="cls-2" x="476.98" y="377.97" width="6.07" height="2.26"/><path class="cls-3" d="M442.65,400.16a1.81,1.81,0,1,0,1.8-1.81A1.8,1.8,0,0,0,442.65,400.16Z"/><path class="cls-2" d="M444.45,402.17a2,2,0,1,1,2-2A2,2,0,0,1,444.45,402.17Zm0-3.62a1.61,1.61,0,1,0,1.6,1.61A1.61,1.61,0,0,0,444.45,398.55Z"/><path class="cls-3" d="M503.87,400.16a1.81,1.81,0,1,0,1.81-1.81A1.81,1.81,0,0,0,503.87,400.16Z"/><path class="cls-2" d="M505.68,402.17a2,2,0,1,1,2-2A2,2,0,0,1,505.68,402.17Zm0-3.62a1.61,1.61,0,1,0,1.6,1.61A1.61,1.61,0,0,0,505.68,398.55Z"/><path class="cls-2" d="M449.86,386.7a10.35,10.35,0,0,0-3.7-1l.2-2.25c.34,0,3.35.34,4.81,1.38Z"/><rect class="cls-2" x="498.88" y="377.21" width="17.14" height="2.26"/><polygon class="cls-2" points="772.95 230.94 770.69 230.94 770.69 213.01 743.15 213.01 743.15 210.75 772.95 210.75 772.95 230.94"/><polygon class="cls-2" points="839.17 366.77 781.64 366.77 781.64 288.52 783.9 288.52 783.9 364.51 836.91 364.51 836.91 288.52 839.17 288.52 839.17 366.77"/><rect class="cls-1" x="757.29" y="321.3" width="19.7" height="2.26"/><rect class="cls-1" x="750.44" y="300.42" width="26.55" height="2.26"/><polygon class="cls-1" points="850.15 289.65 826.19 289.65 826.19 287.39 844.69 287.39 810.35 253.04 776 287.39 794.05 287.39 794.05 289.65 770.54 289.65 810.35 249.85 850.15 289.65"/><path class="cls-2" d="M810,300.19a12.54,12.54,0,1,1,6.25-1.68A12.54,12.54,0,0,1,810,300.19Zm0-22.81a10.27,10.27,0,1,0,8.92,5.13A10.22,10.22,0,0,0,809.94,277.38Z"/><polygon class="cls-1" points="884.65 323.31 843.22 323.31 843.22 321.05 880.61 321.05 869.14 302.43 843.22 302.43 843.22 300.17 870.41 300.17 884.65 323.31"/><polygon class="cls-2" points="876.53 367.04 843.27 367.04 843.27 364.78 874.27 364.78 874.27 327.68 876.53 327.68 876.53 367.04"/><path class="cls-2" d="M823.79,365.64h-2.26V343.3a7.13,7.13,0,0,0-7.12-7.12H806.8a7.12,7.12,0,0,0-7.12,7.12v22h-2.26v-22a9.39,9.39,0,0,1,9.38-9.38h7.61a9.39,9.39,0,0,1,9.38,9.38Z"/><rect class="cls-2" x="791.8" y="307.79" width="37.49" height="2.26"/><rect class="cls-2" x="791.8" y="324.9" width="37.49" height="2.26"/><rect class="cls-2" x="798.02" y="316.34" width="27.21" height="2.26"/><path class="cls-3" d="M807.79,287.65a2.17,2.17,0,1,0,2.17-2.17A2.17,2.17,0,0,0,807.79,287.65Z"/><path class="cls-2" d="M810,290a2.37,2.37,0,0,1-1.68-.7,2.34,2.34,0,0,1-.69-1.68h0a2.37,2.37,0,0,1,2.37-2.37h0a2.37,2.37,0,0,1,2.37,2.37A2.37,2.37,0,0,1,810,290Zm-2-2.38a1.94,1.94,0,0,0,.57,1.39,2,2,0,0,0,1.39.58h0a2,2,0,0,0,0-3.93h0a2,2,0,0,0-2,2Z"/><polygon class="cls-2" points="767.01 342.61 761.8 342.61 761.8 340.35 764.75 340.35 764.75 332.75 761.8 332.75 761.8 330.49 767.01 330.49 767.01 342.61"/><polygon class="cls-2" points="767.01 359.53 761.8 359.53 761.8 357.27 764.75 357.27 764.75 349.68 761.8 349.68 761.8 347.42 767.01 347.42 767.01 359.53"/><path class="cls-2" d="M865.88,342.61H853.76V330.49h12.12ZM856,340.35h7.6v-7.6H856Z"/><path class="cls-2" d="M865.88,359.53H853.76V347.42h12.12ZM856,357.27h7.6v-7.59H856Z"/><rect class="cls-2" x="760.96" y="364.78" width="121.67" height="2.26"/><rect class="cls-2" x="782.77" y="373.77" width="69.92" height="2.26"/><polygon class="cls-2" points="811.47 251.45 809.22 251.45 809.22 229.81 828.71 229.81 828.71 242.32 814.94 242.32 814.94 240.06 826.45 240.06 826.45 232.07 811.47 232.07 811.47 251.45"/><polygon class="cls-2" points="792.93 259.16 790.67 259.16 790.67 232.07 750.44 232.07 750.44 229.81 792.93 229.81 792.93 259.16"/><rect class="cls-2" x="762.58" y="211.88" width="2.26" height="19.06"/><rect class="cls-2" x="750.44" y="245.97" width="34.31" height="2.26"/><rect class="cls-2" x="750.44" y="258.02" width="34.31" height="2.26"/><rect class="cls-2" x="750.44" y="270.07" width="28.21" height="2.26"/><rect class="cls-2" x="750.44" y="282.13" width="17.15" height="2.26"/><polygon class="cls-2" points="822.5 415.42 820.24 415.42 820.24 407.68 787.7 407.68 787.7 394.3 764.75 394.3 764.75 392.04 789.95 392.04 789.95 405.42 822.5 405.42 822.5 415.42"/><polygon class="cls-1" points="122.81 295.39 49.69 295.39 62.09 272.5 126.41 272.5 126.41 274.75 63.44 274.75 53.49 293.13 122.81 293.13 122.81 295.39"/><polygon class="cls-2" points="57.08 358.23 54.82 358.23 54.82 327.99 62.05 327.99 62.05 319.96 54.82 319.96 54.82 301.5 57.08 301.5 57.08 317.7 64.31 317.7 64.31 330.25 57.08 330.25 57.08 358.23"/><polygon class="cls-2" points="41.16 296.13 33.7 296.13 33.7 293.87 37.25 293.87 24.16 271.2 11.06 293.87 14.15 293.87 14.15 296.13 7.15 296.13 24.16 266.68 41.16 296.13"/><path class="cls-2" d="M45.13,319.41H3.19l21-36.32Zm-38-2.26H41.21l-17-29.54Z"/><polygon class="cls-2" points="48.31 344.95 0 344.95 13.58 321.44 15.53 322.56 3.91 342.69 44.4 342.69 32.59 322.24 34.55 321.11 48.31 344.95"/><polygon class="cls-2" points="30.72 365.25 17.58 365.25 19.19 348.26 21.44 348.48 20.07 362.99 28.25 362.99 26.93 348.47 29.18 348.27 30.72 365.25"/><polygon class="cls-2" points="52.72 275.82 50.46 275.82 50.46 251.88 86.81 251.88 86.81 225.17 127.34 225.17 127.34 227.43 89.07 227.43 89.07 254.14 52.72 254.14 52.72 275.82"/><path class="cls-2" d="M127.06,236.44h-3.28v-2.26h3.28Zm-6.57,0H117.2v-2.26h3.29Zm-6.57,0h-3.29v-2.26h3.29Zm-6.57,0h-3.29v-2.26h3.29Zm-6.58,0H97.49v-2.26h3.28Zm-6.57,0H90.91v-2.26H94.2Z"/><path class="cls-2" d="M127.06,251.8h-3.28v-2.26h3.28Zm-6.57,0H117.2v-2.26h3.29Zm-6.57,0h-3.29v-2.26h3.29Zm-6.57,0h-3.29v-2.26h3.29Zm-6.58,0H97.49v-2.26h3.28Zm-6.57,0H90.91v-2.26H94.2Z"/><path class="cls-2" d="M125,267.15h-3.28v-2.26H125Zm-6.57,0H115.1v-2.26h3.29Zm-6.57,0h-3.29v-2.26h3.29Zm-6.58,0H102v-2.26h3.28Zm-6.57,0H95.39v-2.26h3.28Zm-6.57,0H88.81v-2.26H92.1Zm-6.57,0H82.24v-2.26h3.29Zm-6.58,0H75.67v-2.26H79Zm-6.57,0H69.1v-2.26h3.28Zm-6.57,0H62.52v-2.26h3.29Zm-6.57,0H56v-2.26h3.29Z"/><path class="cls-2" d="M78.66,323.8H70.9V303.65h7.76Zm-5.5-2.26H76.4V305.91H73.16Z"/><path class="cls-2" d="M98.42,323.8H90.67V303.65h7.75Zm-5.5-2.26h3.24V305.91H92.92Z"/><path class="cls-2" d="M78.66,350.41H70.9V330.27h7.76Zm-5.5-2.26H76.4V332.53H73.16Z"/><path class="cls-2" d="M98.42,350.41H90.67V330.27h7.75Zm-5.5-2.26h3.24V332.53H92.92Z"/><path class="cls-1" d="M234.13,364h-2.26a11.11,11.11,0,0,0-2-6.38l-.78-1.12,1.24-.56a4.85,4.85,0,0,0-2-9.28,4.81,4.81,0,0,0-3.27,1.28l-1,.91-.73-1.14a9.84,9.84,0,0,0-17.6,8.54l.54,1.55-1.64-.05h-.23a8.31,8.31,0,0,0-3.82.92l-.7.36-.58-.55a11.63,11.63,0,0,0-5.39-2.72l-1.54-.34.83-1.35a3.51,3.51,0,1,0-6.51-1.83,4,4,0,0,0,.08.75l.19.86-.79.39a2.93,2.93,0,0,0-1.57,2l-.12.5-.45.24c-2.73,1.48-4.29,3.7-4.29,6.1H177.5c0-3.07,1.88-6,5.05-7.85a5.18,5.18,0,0,1,1.92-2.59c0-.13,0-.27,0-.4a5.78,5.78,0,1,1,11.55,0,5.6,5.6,0,0,1-.25,1.68,13.38,13.38,0,0,1,4.53,2.41,10.31,10.31,0,0,1,2.93-.77,11.49,11.49,0,0,1-.28-2.54,12.11,12.11,0,0,1,21.62-7.51,7,7,0,0,1,3.79-1.1,7.11,7.11,0,0,1,4,13A13.35,13.35,0,0,1,234.13,364Z"/><rect class="cls-2" x="225.41" y="363.05" width="38.89" height="2.26"/><rect class="cls-1" x="517.28" y="363.05" width="100.56" height="2.26"/></g></g></svg>