<svg xmlns="http://www.w3.org/2000/svg" viewBox="0 0 329.26 319.56"><defs><style>.cls-1{fill:#008fe5;}.cls-2{fill:#445462;}.cls-3{fill:#0af;}.cls-4{fill:#fff;}</style></defs><title>Asset 4</title><g id="Layer_2" data-name="Layer 2"><g id="Layer_1-2" data-name="Layer 1"><path class="cls-1" d="M276.86,299.94l-120.36-.09a1.5,1.5,0,0,1-1.5-1.5v-7.41h3v5.92l118.48.08,18.4-9.53L276.68,279,197,278.94v-3l79.73.06a1.54,1.54,0,0,1,.85.11L298.92,286a1.5,1.5,0,0,1,.06,2.69l-21.37,11.07A1.66,1.66,0,0,1,276.86,299.94Z"/><rect class="cls-1" x="192.98" y="285.94" width="21" height="3" transform="translate(-84.42 490.26) rotate(-89.87)"/><rect class="cls-1" x="275" y="283.94" width="3" height="14"/><rect class="cls-1" x="298" y="285.94" width="9" height="3"/><path class="cls-1" d="M221,309.94H180a8,8,0,0,1-8-8v-4h3v4a5,5,0,0,0,5,5h41Z"/><path class="cls-1" d="M290,27.06a8.12,8.12,0,1,1,8.12-8.12A8.13,8.13,0,0,1,290,27.06Zm0-13a4.88,4.88,0,1,0,4.88,4.88A4.89,4.89,0,0,0,290,14.06Z"/><path class="cls-2" d="M300.18,267.25,292,249.11l21.57,2.71ZM297,252.75l4,9,6.64-7.64Z"/><path class="cls-1" d="M24.75,303.39a1.46,1.46,0,0,1-.95-.34L6.11,288.56,8,286.24l15,12.32-1.13-18.84a1.47,1.47,0,0,1,.55-1.25,1.5,1.5,0,0,1,1.35-.28l10.41,2.9,3-9,2.84,1L36.62,283.4a1.51,1.51,0,0,1-1.83,1L25,281.64l1.21,20.16a1.52,1.52,0,0,1-.82,1.43A1.48,1.48,0,0,1,24.75,303.39Z"/><path class="cls-3" d="M198.74,56.47a29.72,29.72,0,1,0,28.6-30.79A29.72,29.72,0,0,0,198.74,56.47Z"/><path class="cls-3" d="M246.68,243.63c-.73-3.1-2.68-6-5.93-6.6.49,3-2.47,7.49-5.7,8.14-22.75,5.17-45,16.13-66.19,32.53a23.81,23.81,0,0,1-10.11,2.24h-43.1c-8.1-.67-15.14,2.06-20.46,4.56-.31.15-.6.31-.89.47.47.73.91,1.47,1.33,2.22,1.35,2.17,2.79,4.3,4.23,6.42l.69-.31c4.45-2.06,9.51-3.93,14.49-3.36h43.71a36.44,36.44,0,0,0,16.77-4c33.28-26.06,60.49-32.25,64.56-33.25C244,251.18,247.4,246.53,246.68,243.63Z"/><path class="cls-3" d="M170.14,236.14a10,10,0,0,1-7.53,7.63,1,1,0,0,1-.47.1,1.21,1.21,0,0,1-.5.07H138.91a7.51,7.51,0,0,0-1.27.1c-6.51,0-8.73,5.79-8.73,8.66a4.47,4.47,0,0,0,4.39,4.57c1.87,0,4.07-1.53,4-3.37l1.58,0h24.68a10.27,10.27,0,0,0,10.15-7.79A9.9,9.9,0,0,0,170.14,236.14Z"/><path class="cls-2" d="M272.69,61.27l-3-.34c.14-1.27.22-2.56.25-3.85l3,.06C272.93,58.52,272.84,59.91,272.69,61.27Zm-2.84-8c-.09-1.29-.25-2.58-.46-3.84l3-.49c.23,1.35.39,2.73.49,4.11Zm-1.27-7.61c-.33-1.24-.72-2.48-1.16-3.68l2.82-1c.47,1.29.89,2.61,1.24,3.94Zm-2.65-7.23c-.56-1.16-1.17-2.3-1.83-3.4l2.57-1.54c.71,1.18,1.37,2.41,2,3.65Zm-4-6.61c-.76-1-1.58-2-2.43-3l2.24-2c.91,1,1.79,2.11,2.6,3.21ZM256.84,26c-.93-.87-1.92-1.71-2.94-2.49l1.83-2.38c1.09.84,2.15,1.74,3.16,2.68Zm-53.21-2.6L201.8,21c1.1-.84,2.24-1.63,3.41-2.36l1.59,2.54C205.71,21.9,204.65,22.64,203.63,23.42Zm47.11-2.1c-1.09-.68-2.22-1.32-3.36-1.9l1.35-2.68c1.23.62,2.44,1.31,3.61,2Zm-40.58-2-1.35-2.69C210,16,211.32,15.47,212.6,15l1.08,2.79C212.49,18.24,211.3,18.76,210.16,19.34Zm33.7-1.5c-1.19-.46-2.42-.88-3.65-1.23l.83-2.89c1.32.38,2.64.83,3.92,1.33Zm-26.52-1.29-.81-2.89c1.32-.37,2.67-.68,4-.93l.54,2.95C219.84,15.91,218.57,16.2,217.34,16.55Zm19.12-.84c-1.26-.23-2.55-.41-3.82-.53l.28-3c1.36.13,2.74.32,4.09.58Zm-11.54-.55-.26-3c.78-.07,1.57-.12,2.36-.15l1.65,0h.11v3h-.11c-.51,0-1,0-1.54,0C226.39,15,225.65,15.09,224.92,15.16Z"/><rect class="cls-4" x="227.06" y="71.86" width="3.93" height="3" transform="translate(151.5 301) rotate(-88.96)"/><rect class="cls-4" x="227.15" y="38.27" width="4.06" height="3" transform="translate(185.17 268.18) rotate(-88.94)"/><path class="cls-4" d="M229,71.57a12.66,12.66,0,0,1-9.28-4.47L222,65.15a9.68,9.68,0,0,0,7.3,3.41c1.83-.06,5.55-.88,6.54-3.51a5.81,5.81,0,0,0-1-5.28c-1.42-1.82-3.51-2.17-5.94-2.57-2.59-.44-5.53-.93-7.37-3.64a8.16,8.16,0,0,1-.7-7.71c1.65-3.61,6-4.9,9.37-4.55a10.72,10.72,0,0,1,7.31,4.28L235,47.38a7.82,7.82,0,0,0-5.2-3.1c-2.34-.23-5.36.67-6.34,2.82a5.11,5.11,0,0,0,.45,4.77c1.12,1.65,3.1,2,5.39,2.37,2.66.44,5.67.94,7.8,3.69a8.67,8.67,0,0,1,1.47,8.17c-1.43,3.84-5.87,5.35-9.23,5.46Z"/><rect class="cls-2" x="191.53" y="169.57" width="55.36" height="3" transform="translate(-43.05 263.47) rotate(-57.38)"/><path class="cls-2" d="M204.46,167.07a9.26,9.26,0,1,1,9.26-9.26A9.28,9.28,0,0,1,204.46,167.07Zm0-15.52a6.26,6.26,0,1,0,6.26,6.26A6.26,6.26,0,0,0,204.46,151.55Z"/><path class="cls-2" d="M232.92,192.94a9.26,9.26,0,1,1,9.26-9.26A9.27,9.27,0,0,1,232.92,192.94Zm0-15.52a6.26,6.26,0,1,0,6.26,6.26A6.26,6.26,0,0,0,232.92,177.42Z"/><path class="cls-2" d="M79.58,251.76l-2-2.2c6-5.57,22-18.58,39.93-19.24l.11,3C100.66,233.94,85.37,246.42,79.58,251.76Z"/><path class="cls-2" d="M101.47,296.6l-1.4-2.65c4.21-2.23,9.75-4.69,15.29-4H159a31.43,31.43,0,0,0,15.88-4.32c20.65-18.43,42.22-30.54,64.11-36l1.1-.28c3.27-1.43,5.58-4.69,5-7.16-.71-3.47-2.17-5.73-7.26-6.29a17.62,17.62,0,0,0-2.5-.14c-19.28,0-51.27,12.68-67.14,20.17l-1.28-2.71c16.09-7.6,48.61-20.46,68.42-20.46a19.54,19.54,0,0,1,2.88.17c7.29.8,9.08,5,9.81,8.64.86,3.92-2.17,8.58-6.89,10.58l-.18.06c-.3.09-.73.19-1.28.33-21.45,5.34-42.63,17.25-62.94,35.4l-.23.17A34.39,34.39,0,0,1,159,292.94l-43.9,0C110.33,292.31,105.31,294.57,101.47,296.6Z"/><path class="cls-2" d="M280.4,233.94H37.6a9.62,9.62,0,0,1-9.6-9.6v-9.4H290v9.4A9.62,9.62,0,0,1,280.4,233.94ZM31,217.94v6.4a6.61,6.61,0,0,0,6.6,6.6H280.4a6.61,6.61,0,0,0,6.6-6.6v-6.4Z"/><polygon class="cls-2" points="78.41 319.56 77.14 316.84 102.23 305.2 74.47 245.42 52.72 255.82 65.87 285.07 63.13 286.3 48.78 254.38 75.92 241.4 106.21 306.66 78.41 319.56"/><path class="cls-2" d="M163.57,256.94H136v-3h27.57a10,10,0,0,0,10-10.16,10.26,10.26,0,0,0-10.42-9.84H116v-3h47.15a13.28,13.28,0,0,1,13.42,12.79,13,13,0,0,1-13,13.21Z"/><polygon class="cls-2" points="254.38 129.94 184 129.94 184 126.94 254.26 126.94 262.88 126.21 240.6 103.94 184 103.94 184 100.94 241.84 100.94 269.56 128.66 254.38 129.94"/><rect class="cls-2" x="256" y="126.94" width="3" height="88"/><rect class="cls-2" x="268" y="148.94" width="3" height="36"/><polygon class="cls-2" points="183.88 215.94 180.88 215.94 181 85.94 73 85.94 73 215.94 70 215.94 70 82.94 184 82.94 183.88 215.94"/><polygon class="cls-2" points="55.95 85.98 53.99 83.71 125.78 22.17 197.46 83.61 195.51 85.89 125.78 26.13 55.95 85.98"/><path class="cls-2" d="M122,160.94H103v-19h19Zm-16-3h13v-13H106Z"/><path class="cls-2" d="M153,160.94H134v-19h19Zm-16-3h13v-13H137Z"/><path class="cls-2" d="M122,129.94H103v-19h19Zm-16-3h13v-13H106Z"/><path class="cls-2" d="M153,129.94H134v-19h19Zm-16-3h13v-13H137Z"/><polygon class="cls-2" points="153 215.94 150 215.94 150 178.94 107 178.94 107 215.94 104 215.94 104 175.94 153 175.94 153 215.94"/><rect class="cls-2" x="127" y="182.94" width="3" height="33"/><polygon class="cls-2" points="182 70.94 179 70.94 179 23.94 161 23.94 161 43.94 158 43.94 158 20.94 182 20.94 182 70.94"/><rect class="cls-2" x="268" y="193.94" width="3" height="9"/><path class="cls-1" d="M297.5,168.94a10.5,10.5,0,1,1,10.5-10.5A10.51,10.51,0,0,1,297.5,168.94Zm0-18a7.5,7.5,0,1,0,7.5,7.5A7.5,7.5,0,0,0,297.5,150.94Z"/><path class="cls-1" d="M298,184.39a31,31,0,0,1-22.07-9.16L278,173.1a28.26,28.26,0,1,0,32.81-45.16,1.5,1.5,0,0,1-.82-1.34V74.4l-12-8.75L286.5,74l6.11,9.9a1.5,1.5,0,0,1-.3,1.92L286,91.31v7.31l6.83,4a1.51,1.51,0,0,1,.74,1.31,1.49,1.49,0,0,1-.78,1.29L286,109v6h-3V108.1a1.53,1.53,0,0,1,.77-1.32l5.27-2.91-5.3-3.09a1.51,1.51,0,0,1-.74-1.3V90.62a1.48,1.48,0,0,1,.52-1.13l5.86-5.08-6.16-10a1.5,1.5,0,0,1,.4-2l13.49-9.84a1.49,1.49,0,0,1,1.77,0l13.5,9.84a1.52,1.52,0,0,1,.62,1.21V125.7a31.26,31.26,0,0,1-9.31,58.18A33,33,0,0,1,298,184.39Z"/><path class="cls-1" d="M276.48,135.15l-2.31-1.9a31.05,31.05,0,0,1,9.94-8l1.36,2.67A28.09,28.09,0,0,0,276.48,135.15Z"/><path class="cls-1" d="M44,84.74a43.33,43.33,0,0,1-30-41.3,1.5,1.5,0,0,1,1.5-1.5H56V1.5A1.5,1.5,0,0,1,57.5,0,43.22,43.22,0,0,1,99.81,33.57l-2.92.68A40.23,40.23,0,0,0,59,3V43.44a1.5,1.5,0,0,1-1.5,1.5H17.09A40.34,40.34,0,0,0,45,81.89Z"/><path class="cls-3" d="M14.84,33.94H44V4.78A40.71,40.71,0,0,0,14.84,33.94Z"/><path class="cls-1" d="M27,232.94H5.23A5.24,5.24,0,0,1,0,227.7V130.79a5.24,5.24,0,0,1,1.54-3.7l18.77-18.64A5.22,5.22,0,0,1,24,106.94H63v3H24a2.2,2.2,0,0,0-1.56.64L3.65,129.22A2.23,2.23,0,0,0,3,130.79V227.7a2.23,2.23,0,0,0,2.23,2.24H27Z"/><path class="cls-1" d="M14.82,131.94H2v-3H14.82A6.18,6.18,0,0,0,21,122.76V109.94h3v12.82A9.19,9.19,0,0,1,14.82,131.94Z"/><rect class="cls-1" x="14" y="170.94" width="49" height="3"/><path class="cls-2" d="M34,153.94H30v-3h4Zm-8,0H22v-3h4Zm-8,0H14v-3h4Z"/><rect class="cls-2" x="14" y="138.94" width="20" height="3"/><rect class="cls-1" x="14" y="182.94" width="49" height="3"/><rect class="cls-1" x="14" y="194.94" width="49" height="3"/><path class="cls-1" d="M62.51,159.23a17.47,17.47,0,0,1,0-34.94v3a14.47,14.47,0,0,0,0,28.94Z"/><path class="cls-1" d="M62.51,151.39a9.53,9.53,0,0,1,0-19.06v3a6.53,6.53,0,0,0,0,13.06Z"/></g></g></svg>