<svg xmlns="http://www.w3.org/2000/svg" viewBox="0 0 344.85 344.19"><defs><style>.cls-1{fill:#008fe5;}.cls-2{fill:#445462;}.cls-3{fill:#0af;}</style></defs><title>Asset 3</title><g id="Layer_2" data-name="Layer 2"><g id="Layer_1-2" data-name="Layer 1"><path class="cls-1" d="M269.14,97.87H244.37v-3h24.77a3.93,3.93,0,0,0,3.92-3.93,4,4,0,0,0-1.43-3,10.83,10.83,0,1,1,14.43,0,4.15,4.15,0,0,0-1.46,3.06,3.93,3.93,0,0,0,3.92,3.93l5.82-.07H316V72.9h3V96.3a1.5,1.5,0,0,1-1.5,1.5H294.36l-5.82.07a6.94,6.94,0,0,1-6.94-6.93,7.09,7.09,0,0,1,2.46-5.29,7.74,7.74,0,0,0,2.51-7,7.83,7.83,0,1,0-12.94,7,7.13,7.13,0,0,1,2.43,5.27A6.93,6.93,0,0,1,269.14,97.87Z"/><path class="cls-1" d="M319,96.59h-3V70a6.93,6.93,0,0,1,6.92-6.92,7.06,7.06,0,0,1,5.29,2.46,7.75,7.75,0,0,0,7,2.52,7.83,7.83,0,1,0-7-12.95,7.09,7.09,0,0,1-5.27,2.43A6.92,6.92,0,0,1,316,50.64V25.92H288.52a3.93,3.93,0,0,0-3.92,3.93,4.11,4.11,0,0,0,1.46,3,10.83,10.83,0,1,1-14.43,0,4.09,4.09,0,0,0,1.43-3,3.93,3.93,0,0,0-3.92-3.93H241.67V48.84h-3V24.42a1.5,1.5,0,0,1,1.5-1.5h29a6.93,6.93,0,0,1,6.92,6.93,7.09,7.09,0,0,1-2.43,5.26,7.82,7.82,0,1,0,12.94,7,7.73,7.73,0,0,0-2.51-7,7.09,7.09,0,0,1-2.46-5.29,6.93,6.93,0,0,1,6.92-6.93h29a1.5,1.5,0,0,1,1.5,1.5V50.64a3.93,3.93,0,0,0,3.92,3.92,4.09,4.09,0,0,0,3-1.43,10.83,10.83,0,1,1,0,14.44,4.12,4.12,0,0,0-3.06-1.47A3.93,3.93,0,0,0,319,70Z"/><rect class="cls-1" x="38.1" y="88.89" width="28.87" height="3"/><path class="cls-1" d="M49.13,52.2H42.51a8.12,8.12,0,1,1,8.12-8.12V50.7A1.5,1.5,0,0,1,49.13,52.2ZM42.51,39a5.12,5.12,0,0,0,0,10.24h5.12V44.08A5.12,5.12,0,0,0,42.51,39Z"/><path class="cls-1" d="M63.69,52.2H57.08a1.5,1.5,0,0,1-1.5-1.5V44.08a8.12,8.12,0,1,1,8.11,8.12Zm-5.11-3h5.11a5.12,5.12,0,1,0-5.11-5.12Z"/><rect class="cls-1" x="55.58" y="50.7" width="3" height="28.54"/><rect class="cls-1" x="47.47" y="49.6" width="3" height="30.65"/><path class="cls-1" d="M52.49,110.58a8.88,8.88,0,0,1-8.87-8.87h3a5.87,5.87,0,1,0,11.74,0h3A8.88,8.88,0,0,1,52.49,110.58Z"/><path class="cls-1" d="M59.85,102.51H46A9.53,9.53,0,0,1,36.47,93V77.94h3V93A6.52,6.52,0,0,0,46,99.51H59.85A6.52,6.52,0,0,0,66.36,93V78.38h3V93A9.53,9.53,0,0,1,59.85,102.51Z"/><path class="cls-1" d="M52.68,82.59A37.47,37.47,0,1,1,90.15,45.12,37.51,37.51,0,0,1,52.68,82.59Zm0-71.93A34.47,34.47,0,1,0,87.15,45.12,34.5,34.5,0,0,0,52.68,10.66Z"/><path class="cls-2" d="M230.38,38.3h-4v-3h4Zm-8,0h-4v-3h4Zm-8,0h-4v-3h4Zm-8,0h-4v-3h4Zm-8,0h-4v-3h4Zm-8,0h-4v-3h4Zm-8,0h-4v-3h4Zm-8,0h-4v-3h4Zm-8,0h-4v-3h4Zm-8,0h-4v-3h4Zm-8,0h-4v-3h4Zm-8,0h-4v-3h4Zm-8,0h-4v-3h4Zm-8,0h-4v-3h4Zm-8,0h-4v-3h4Zm-8,0h-4v-3h4Zm-8,0h-4v-3h4Z"/><polygon class="cls-1" points="173.21 21.36 173.13 6.32 160.15 16.97 155.63 7.32 148.19 9.62 147.31 6.75 157.24 3.69 161.23 12.21 176.1 0 176.21 21.34 173.21 21.36"/><path class="cls-3" d="M174.33,182.75,89.82,269.54l-1.41,52.38H65.2V291.53L33.29,323.22l283.24,2Zm-3.42,43L240.1,295H101.71Z"/><path class="cls-2" d="M12.73,323.23h-3V131.93a13.68,13.68,0,0,1,13.66-13.66h81.42v3H23.39a10.67,10.67,0,0,0-10.66,10.66Z"/><path class="cls-2" d="M332.12,323.23h-3V131.93a10.67,10.67,0,0,0-10.66-10.66h-70.4v-3h70.4a13.68,13.68,0,0,1,13.66,13.66Z"/><path class="cls-2" d="M323.32,344.19H18.53A18.55,18.55,0,0,1,0,325.66v-3.93H156.43l.44.74a8.14,8.14,0,0,0,7.08,4.12h15.57a8.15,8.15,0,0,0,7.08-4.11l.43-.75H341.85v3.93A18.55,18.55,0,0,1,323.32,344.19ZM3,324.73v.93a15.55,15.55,0,0,0,15.53,15.53H323.32a15.55,15.55,0,0,0,15.53-15.53v-.93H188.72a11.24,11.24,0,0,1-9.2,4.86H164a11.24,11.24,0,0,1-9.2-4.86Z"/><path class="cls-1" d="M113.72,235.47h-3V57.18a1.5,1.5,0,0,1,1.5-1.5h46.43a1.5,1.5,0,0,1,1.5,1.5V185.82h-3V58.68H113.72Z"/><rect class="cls-2" x="20" y="301.01" width="52.95" height="3" transform="translate(-200.29 121.47) rotate(-45)"/><polygon class="cls-2" points="311.28 321.89 170.25 180.85 90.07 261.04 87.94 258.92 170.25 176.61 313.4 319.76 311.28 321.89"/><path class="cls-2" d="M243.72,296.46H98.09l72.82-72.81Zm-138.39-3H236.48l-65.57-65.57Z"/><path class="cls-2" d="M89,309.86H70.12a1.5,1.5,0,0,1-1.5-1.5V187.27a1.5,1.5,0,0,1,1.5-1.5H89a1.5,1.5,0,0,1,1.5,1.5V308.36A1.5,1.5,0,0,1,89,309.86Zm-17.39-3H87.51V188.77H71.62Z"/><polygon class="cls-2" points="90.51 322.98 87.51 322.98 87.51 309.86 71.62 309.86 71.62 321.89 68.62 321.89 68.62 306.86 90.51 306.86 90.51 322.98"/><path class="cls-2" d="M89,188.77H70.12a1.51,1.51,0,0,1-1.38-2.09l9.44-22a1.5,1.5,0,0,1,2.76,0l9.44,22a1.48,1.48,0,0,1-.12,1.41A1.51,1.51,0,0,1,89,188.77Zm-16.62-3H86.73L79.56,169Z"/><rect class="cls-2" x="78.06" y="156.77" width="3" height="11.21"/><rect class="cls-1" x="112.22" y="91.46" width="23.21" height="3"/><rect class="cls-1" x="112.22" y="106.94" width="11.61" height="3"/><rect class="cls-1" x="112.22" y="122.42" width="11.61" height="3"/><rect class="cls-1" x="112.22" y="137.89" width="23.21" height="3"/><rect class="cls-1" x="112.22" y="153.37" width="11.61" height="3"/><rect class="cls-1" x="112.22" y="168.84" width="11.61" height="3"/><rect class="cls-1" x="112.22" y="184.32" width="15.48" height="3"/><rect class="cls-2" x="177.29" y="203.04" width="11.85" height="3" transform="translate(-90.97 189.46) rotate(-45)"/><rect class="cls-2" x="190.56" y="216.31" width="11.85" height="3" transform="translate(-96.47 202.73) rotate(-45)"/><rect class="cls-2" x="203.83" y="229.58" width="11.85" height="3" transform="translate(-101.96 216.01) rotate(-45)"/><rect class="cls-2" x="217.09" y="242.85" width="11.85" height="3" transform="translate(-107.46 229.27) rotate(-45)"/><rect class="cls-2" x="230.36" y="256.12" width="11.85" height="3" transform="translate(-112.96 242.54) rotate(-45)"/><rect class="cls-2" x="243.63" y="269.39" width="11.85" height="3" transform="translate(-118.45 255.81) rotate(-45)"/><rect class="cls-2" x="256.9" y="282.66" width="11.85" height="3" transform="translate(-123.95 269.08) rotate(-45)"/><rect class="cls-2" x="270.17" y="295.93" width="11.85" height="3" transform="translate(-129.45 282.35) rotate(-45)"/><circle class="cls-3" cx="225.75" cy="117.34" r="13.66"/><path class="cls-2" d="M225.75,132.49a15.14,15.14,0,1,1,10.72-4.43A15.1,15.1,0,0,1,225.75,132.49Zm0-27.31a12.15,12.15,0,1,0,8.6,3.56A12.09,12.09,0,0,0,225.75,105.18Z"/><polygon class="cls-2" points="235.3 105.94 232.3 105.94 232.3 59.48 219.21 59.48 219.21 105.94 216.21 105.94 216.21 56.48 235.3 56.48 235.3 105.94"/><rect class="cls-2" x="268.73" y="119.69" width="3" height="184.68" transform="translate(-58.78 113.37) rotate(-21.43)"/><polygon class="cls-2" points="282.67 285.82 226.46 142.46 201.48 202.03 198.72 200.87 226.55 134.48 285.47 284.73 282.67 285.82"/><rect class="cls-2" x="168.75" y="158.26" width="69.5" height="3" transform="translate(-21.1 288.18) rotate(-67.89)"/><path class="cls-2" d="M227,204.63a52.59,52.59,0,0,1-25.19-6.43l1.44-2.63A49.57,49.57,0,0,0,227,201.63c7.88,0,14.56-1.82,22.33-6.09l1.45,2.63C242.54,202.7,235.43,204.63,227,204.63Z"/><path class="cls-2" d="M227,188.91a36.78,36.78,0,0,1-19.46-5.55l1.59-2.54a33.92,33.92,0,0,0,34.91.5l1.52,2.59A36.89,36.89,0,0,1,227,188.91Z"/><rect class="cls-2" x="164.76" y="118.47" width="39.4" height="3"/><path class="cls-1" d="M42.59,187.85l-8.12-18.09L56,172.47ZM39.4,173.41l4,8.93,6.6-7.59Z"/><path class="cls-1" d="M298.1,174.11a9.07,9.07,0,1,1,9.07-9.07A9.07,9.07,0,0,1,298.1,174.11Zm0-15.13a6.07,6.07,0,1,0,6.07,6.06A6.07,6.07,0,0,0,298.1,159Z"/></g></g></svg>