<svg xmlns="http://www.w3.org/2000/svg" viewBox="0 0 329.18 342.43"><defs><style>.cls-1{fill:#0af;}.cls-2{fill:#445462;}.cls-3{fill:#001789;}.cls-4{fill:#008fe5;}</style></defs><title>Monitor</title><g id="Layer_2" data-name="Layer 2"><g id="Layer_1-2" data-name="Layer 1"><path class="cls-1" d="M128,70.06h-9.13V60.93a6.52,6.52,0,0,0-6.52-6.52H89.52A6.52,6.52,0,0,0,83,60.93v9.13H73.87A10.43,10.43,0,0,0,63.44,80.49V95.21h75V80.49A10.43,10.43,0,0,0,128,70.06Z"/><path class="cls-1" d="M161.2,276.1c-3.11-5-3.65-28-5.94-32a99.63,99.63,0,0,1-6.77-14.33,94,94,0,0,1-6.14-30.91c-2.27,5.89-2.43,15.41,2.09,30.46,1.31,4.4,3.13,43.26,4.46,49a9.84,9.84,0,0,0,.78,2c3.15,6.86,13.85,24.54,18.79,33.79l12.09-3.89C179.68,308.84,163.39,279.62,161.2,276.1Z"/><path class="cls-2" d="M150.78,308H12.61A12.62,12.62,0,0,1,0,295.35V82.85A12.63,12.63,0,0,1,12.61,70.24h44v3h-44A9.62,9.62,0,0,0,3,82.85v212.5A9.62,9.62,0,0,0,12.61,305H150.78Z"/><polygon class="cls-2" points="130.6 292.32 15.65 292.32 15.65 85.89 56.27 85.89 56.27 88.89 18.65 88.89 18.65 289.32 130.6 289.32 130.6 292.32"/><polygon class="cls-2" points="175.13 180.34 172.13 180.34 172.13 88.89 138.42 88.89 138.42 85.89 175.13 85.89 175.13 180.34"/><rect class="cls-3" x="172.13" y="186.91" width="3" height="6.94"/><path class="cls-2" d="M139.92,96.71H54.77V74.35A11.94,11.94,0,0,1,66.7,62.42H128a11.94,11.94,0,0,1,11.93,11.93Zm-82.15-3h79.15V74.35A8.94,8.94,0,0,0,128,65.42H66.7a8.94,8.94,0,0,0-8.93,8.93Z"/><rect class="cls-4" x="95.39" y="120.26" width="56.45" height="3"/><rect class="cls-4" x="95.39" y="139.82" width="32.14" height="3"/><rect class="cls-4" x="95.39" y="175.87" width="52.54" height="3"/><rect class="cls-4" x="95.39" y="195.43" width="20.4" height="3"/><rect class="cls-4" x="95.39" y="231.48" width="31.3" height="3"/><rect class="cls-4" x="95.39" y="251.04" width="20.4" height="3"/><path class="cls-4" d="M66.05,154.55H46.49a11.29,11.29,0,0,1-11.28-11.28V123.71a11.29,11.29,0,0,1,11.28-11.28H61.88v3H46.49a8.29,8.29,0,0,0-8.28,8.28v19.56a8.28,8.28,0,0,0,8.28,8.28H66.05a8.29,8.29,0,0,0,8.28-8.28h3A11.29,11.29,0,0,1,66.05,154.55Z"/><path class="cls-2" d="M166.46,314.49c-1.83-4.26-5.93-11.45-9.89-18.4-3.42-6-6.65-11.68-8.24-15.15a10.59,10.59,0,0,1-.84-2.22c-.66-2.82-1.4-13-2.19-23.7-.73-10-1.56-21.37-2.16-23.37-6.46-21.52-2.9-31.17,1.23-35.46a13.56,13.56,0,0,1,13.14-3.58c10.6,2.73,12.08,14.28,13.5,25.46.69,5.38,1.4,10.94,3.12,15.3.5,1.26,3.57,4.56,7.88,6.63a29,29,0,0,0,5.11,2.09h.13a.6.6,0,0,0,.53-.59V82.85a9.62,9.62,0,0,0-9.61-9.61H138.11v-3h40.06a12.63,12.63,0,0,1,12.61,12.61V241.5a3.59,3.59,0,0,1-3.2,3.57,3.26,3.26,0,0,1-1,0,28,28,0,0,1-5.83-2.33c-4.72-2.26-8.47-5.95-9.37-8.23-1.86-4.71-2.6-10.46-3.3-16-1.36-10.65-2.65-20.71-11.27-22.94a10.57,10.57,0,0,0-10.23,2.76C143,202,140,210.65,146,230.79c.64,2.16,1.29,10.51,2.27,24C149,265,149.8,275.45,150.41,278a7.48,7.48,0,0,0,.62,1.61c1.56,3.4,4.76,9,8.15,15,4,7,8.14,14.29,10,18.7Z"/><path class="cls-2" d="M220.06,294.65l-3-.4c.45-3.37,1.07-8.49,1.78-14.41,1.27-10.55,2.71-22.52,3.8-29.41,2-12.6,1.2-19.17-.75-25.69,0,0-.32-1-.72-2.1-3.93-10.3-16.86-28.92-28.24-40.64l2.16-2.09c11.8,12.17,24.76,30.86,28.88,41.67.44,1.15.78,2.25.79,2.29,2.07,6.94,2.93,13.87.85,27-1.09,6.84-2.52,18.77-3.79,29.3C221.14,286.13,220.52,291.25,220.06,294.65Z"/><polygon class="cls-2" points="60.02 142.75 47.26 130.63 49.33 128.45 59.8 138.41 78.6 116.61 80.87 118.56 60.02 142.75"/><path class="cls-4" d="M66.05,210.16H46.49a11.29,11.29,0,0,1-11.28-11.28V179.32A11.29,11.29,0,0,1,46.49,168H61.88v3H46.49a8.29,8.29,0,0,0-8.28,8.28v19.56a8.28,8.28,0,0,0,8.28,8.28H66.05a8.29,8.29,0,0,0,8.28-8.28h3A11.29,11.29,0,0,1,66.05,210.16Z"/><polygon class="cls-2" points="60.02 198.36 47.26 186.24 49.33 184.06 59.8 194.02 78.6 172.21 80.87 174.17 60.02 198.36"/><path class="cls-4" d="M66.05,265.77H46.49a11.29,11.29,0,0,1-11.28-11.28V234.93a11.29,11.29,0,0,1,11.28-11.28H61.88v3H46.49a8.29,8.29,0,0,0-8.28,8.28v19.56a8.28,8.28,0,0,0,8.28,8.28H66.05a8.29,8.29,0,0,0,8.28-8.28h3A11.29,11.29,0,0,1,66.05,265.77Z"/><polygon class="cls-2" points="60.02 253.97 47.26 241.84 49.33 239.67 59.8 249.63 78.6 227.82 80.87 229.78 60.02 253.97"/><path class="cls-2" d="M120.36,65.42h-46V54.79a8,8,0,0,1,8-8h30a8,8,0,0,1,8,8Zm-43-3h40V54.79a5,5,0,0,0-5-5h-30a5,5,0,0,0-5,5Z"/><polygon class="cls-2" points="167.05 328.58 162.06 314.92 226.7 294.04 231.49 307.63 228.66 308.63 224.84 297.79 165.95 316.82 169.87 327.55 167.05 328.58"/><polygon class="cls-2" points="162.09 342.43 157.39 328.76 238.74 302.88 244.72 321.02 241.87 321.96 236.81 306.64 161.22 330.69 164.93 341.45 162.09 342.43"/><path class="cls-4" d="M250.87,270.62h-9.53v-3h9.53a4.12,4.12,0,0,0,4.12-4.11,4.25,4.25,0,0,0-1.5-3.17,11.16,11.16,0,1,1,14.86,0,4.36,4.36,0,0,0-1.53,3.21,4.12,4.12,0,0,0,4.11,4.11l6-.07h22.46V246h3v24.58H277l-6,.07a7.12,7.12,0,0,1-7.13-7.11,7.3,7.3,0,0,1,2.53-5.44,8.15,8.15,0,0,0-4.51-14.16,8.17,8.17,0,0,0-9.09,8.1,8.2,8.2,0,0,0,2.73,6.09,7.28,7.28,0,0,1,2.51,5.41A7.13,7.13,0,0,1,250.87,270.62Z"/><path class="cls-4" d="M302.42,269.36h-3V243a7.12,7.12,0,0,1,7.12-7.11,7.27,7.27,0,0,1,5.43,2.53,8.1,8.1,0,0,0,7.27,2.62A8.15,8.15,0,1,0,312,227.54a7.3,7.3,0,0,1-5.41,2.5,7.13,7.13,0,0,1-7.12-7.11v-24.5H270.93a4.12,4.12,0,0,0-4.11,4.11,4.32,4.32,0,0,0,1.53,3.2,11.15,11.15,0,1,1-14.86,0,4.3,4.3,0,0,0,1.5-3.17,4.12,4.12,0,0,0-4.12-4.11H224.08v-3h26.79a7.13,7.13,0,0,1,7.12,7.11,7.28,7.28,0,0,1-2.51,5.41,8.15,8.15,0,0,0,0,12.16,8.07,8.07,0,0,0,6.37,2,8.19,8.19,0,0,0,7.13-6.9,8.08,8.08,0,0,0-2.62-7.26,7.3,7.3,0,0,1-2.53-5.44,7.12,7.12,0,0,1,7.11-7.11h31.49v27.5a4.12,4.12,0,0,0,4.12,4.11,4.29,4.29,0,0,0,3.17-1.49,11.14,11.14,0,0,1,19.4,8.68,11.14,11.14,0,0,1-19.37,6.18,4.32,4.32,0,0,0-3.2-1.53,4.12,4.12,0,0,0-4.12,4.11Z"/><path class="cls-4" d="M230.84,110.75c-.79,0-1.59,0-2.39-.1a29.13,29.13,0,1,1,19.64-52.48l-1.78,2.41a26.14,26.14,0,1,0,8.4,10.5l2.75-1.22A29.21,29.21,0,0,1,259.83,84a29.14,29.14,0,0,1-29,26.79Z"/><path class="cls-4" d="M233.93,84.34a4.52,4.52,0,0,1-4.54-5A4.48,4.48,0,0,1,231,76.28L275.5,38.79l1.63-20.21L299,0l-2,24.59-.48.4L233,78.58a1.58,1.58,0,0,0-.58,1.08,1.6,1.6,0,0,0,.37,1.15,1.56,1.56,0,0,0,2.17.19l63.67-53.69,24.58,2L301.32,47.88l-20.51-1.66-44,37.09A4.6,4.6,0,0,1,233.93,84.34Zm50.14-40.86,16.25,1.31L315.7,31.71,299.57,30.4ZM280,20.06l-1.29,16,15.37-13L295.4,7Z"/><path class="cls-2" d="M232.74,125.06l-.09-3c1.27,0,2.57-.15,3.84-.31l.38,3C235.5,124.91,234.11,125,232.74,125.06Zm-4.13,0-.93-.06c-1.07-.09-2.14-.22-3.19-.38l.46-3c1,.15,2,.26,3,.35l.86.06Zm12.33-1-.65-2.93c1.24-.28,2.49-.62,3.71-1l.94,2.85C243.62,123.35,242.28,123.72,240.94,124Zm-20.5-.27c-1.34-.33-2.67-.73-4-1.19l1-2.83c1.21.43,2.45.8,3.7,1.11Zm28.37-2.3-1.2-2.75c1.17-.51,2.34-1.08,3.46-1.7l1.45,2.63C251.31,120.29,250.06,120.91,248.81,121.45Zm7.24-4L254.36,115a38.18,38.18,0,0,0,3.09-2.31l1.91,2.31C258.3,115.86,257.18,116.7,256.05,117.47Zm6.37-5.27-2.11-2.12c.9-.9,1.78-1.86,2.6-2.85l2.3,1.92C264.33,110.21,263.39,111.24,262.42,112.2Zm5.29-6.35-2.47-1.69c.72-1.07,1.41-2.17,2-3.29l2.62,1.46C269.22,103.53,268.49,104.71,267.71,105.85Zm4-7.23L269,97.42c.51-1.17,1-2.39,1.37-3.6l2.85.93C272.77,96.06,272.28,97.36,271.73,98.62Zm2.58-7.85-2.93-.67a36.82,36.82,0,0,0,.68-3.8l3,.39C274.86,88.06,274.61,89.43,274.31,90.77Zm1.08-8.2-3-.11c0-.54,0-1.07,0-1.6,0-.76,0-1.51-.06-2.26l3-.17c0,.81.06,1.63.06,2.43Q275.42,81.72,275.39,82.57ZM272,74.76c-.19-1.26-.44-2.53-.75-3.78l2.91-.72c.33,1.34.6,2.7.8,4.06Zm-1.86-7.47c-.42-1.21-.91-2.42-1.44-3.58l2.72-1.25a40.89,40.89,0,0,1,1.55,3.83Z"/><path class="cls-2" d="M193.76,63.79,191,62.54c.58-1.25,1.21-2.49,1.9-3.68l2.6,1.5C194.89,61.47,194.3,62.62,193.76,63.79Zm3.85-6.68-2.45-1.73c.8-1.12,1.65-2.22,2.55-3.26l2.28,2C199.15,55.05,198.35,56.07,197.61,57.11Zm5-5.84-2.09-2.16c1-1,2-1.88,3.11-2.73l1.88,2.34C204.54,49.52,203.56,50.38,202.64,51.27Zm53.12-3.46a38.2,38.2,0,0,0-3.21-2.15l1.56-2.57c1.17.71,2.33,1.49,3.43,2.31Zm-47.1-1.35L207,44c1.15-.76,2.35-1.47,3.56-2.11L212,44.49C210.85,45.09,209.73,45.75,208.66,46.46Zm40.5-2.64c-1.15-.56-2.34-1.07-3.54-1.52l1-2.81c1.29.48,2.57,1,3.81,1.63Zm-33.69-1-1.15-2.77c1.26-.53,2.57-1,3.89-1.41l.88,2.87C217.87,41.92,216.65,42.36,215.47,42.85Zm26.47-1.72c-1.23-.33-2.5-.61-3.77-.83l.5-2.95c1.36.23,2.72.53,4.05.88Zm-19.12-.55-.61-2.94c1.35-.28,2.73-.5,4.09-.65l.33,3C225.36,40.11,224.08,40.32,222.82,40.58Zm11.52-.74c-1-.08-2.1-.12-3.15-.12h-.71l0-3h.75c1.13,0,2.27,0,3.38.12Z"/><path class="cls-4" d="M231.13,141.5a60.47,60.47,0,0,1-16.2-2.21l.81-2.89a57.3,57.3,0,0,0,66.15-81.73l2.66-1.39a60.3,60.3,0,0,1-53.42,88.22Z"/><path class="cls-4" d="M180.36,54.67l-2.66-1.39a60.29,60.29,0,0,1,94.52-16.16l-2.05,2.19a57.29,57.29,0,0,0-89.81,15.36Z"/><path class="cls-2" d="M276.65,189h-3v-4h3Zm0-8h-3v-4h3Zm0-8h-3v-4h3Zm0-8h-3v-4h3Zm0-8h-3v-4h3Zm0-8h-3v-4h3Zm0-8h-3v-4h3Z"/><path class="cls-2" d="M313,165.14,304,145l23.9,3Zm-4.11-16.48,4.93,11,8.1-9.33Z"/><polygon class="cls-2" points="301.53 315.09 298.25 300.18 286.56 312.81 279.77 304.22 272.16 307.77 270.89 305.05 280.65 300.5 286.74 308.2 299.94 293.94 304.46 314.45 301.53 315.09"/><path class="cls-2" d="M151.84,37.93A10.18,10.18,0,1,1,162,27.75,10.19,10.19,0,0,1,151.84,37.93Zm0-17.36A7.18,7.18,0,1,0,159,27.75,7.19,7.19,0,0,0,151.84,20.57Z"/><path class="cls-4" d="M98.88,30.88H25.65a1.5,1.5,0,0,1,0-3H97.38V15.62H26.53a1.5,1.5,0,0,1,0-3H98.88a1.5,1.5,0,0,1,1.5,1.5V29.38A1.5,1.5,0,0,1,98.88,30.88Z"/><path class="cls-4" d="M25.41,30.88H17.18a5.42,5.42,0,0,1-5.42-5.42V18a5.42,5.42,0,0,1,5.42-5.42h8.23a1.5,1.5,0,0,1,1.5,1.5V29.38A1.51,1.51,0,0,1,25.41,30.88ZM17.18,15.62A2.42,2.42,0,0,0,14.76,18v7.42a2.43,2.43,0,0,0,2.42,2.42h6.73V15.62Z"/><path class="cls-4" d="M98.88,30.88a1.51,1.51,0,0,1-.79-.23,1.49,1.49,0,0,1-.71-1.27V14.12a1.5,1.5,0,0,1,2.18-1.34l15.16,7.63a1.49,1.49,0,0,1,.83,1.34,1.51,1.51,0,0,1-.83,1.34L99.56,30.71A1.52,1.52,0,0,1,98.88,30.88Zm1.5-14.33V26.94l10.33-5.19Z"/><path class="cls-4" d="M117.61,23.25h-5.46a1.5,1.5,0,0,1,0-3h5.46a1.5,1.5,0,1,1,0,3Z"/></g></g></svg>