<svg xmlns="http://www.w3.org/2000/svg" viewBox="0 0 403.23 418.63"><defs><style>.cls-1{fill:#008fe5;}.cls-2{fill:#0af;}.cls-3{fill:#445462;}</style></defs><title>Asset 5</title><g id="Layer_2" data-name="Layer 2"><g id="Layer_1-2" data-name="Layer 1"><path class="cls-1" d="M35.09,191.44l-2.33-1.89a87,87,0,0,1,60.87-31.92l.23,3A84,84,0,0,0,35.09,191.44Z"/><rect class="cls-1" x="59.89" y="113.44" width="3" height="52.41" transform="translate(-41.49 27.02) rotate(-18.68)"/><rect class="cls-1" x="74.19" y="114.59" width="3" height="47.22" transform="translate(-40.28 31.52) rotate(-18.68)"/><path class="cls-1" d="M75,87.19,73,85l58-55.6L133,31.59Z"/><path class="cls-1" d="M62.87,79.46,60.8,77.29l68.42-65.62,2.08,2.17Z"/><path class="cls-1" d="M59.84,117.34A20.29,20.29,0,1,1,80.13,97.05,20.31,20.31,0,0,1,59.84,117.34Zm0-37.57A17.29,17.29,0,1,0,77.13,97.05,17.3,17.3,0,0,0,59.84,79.77Z"/><path class="cls-1" d="M141.65,31.59,133,23.3A13.52,13.52,0,1,1,151.6,3.73l10.05,9.64-2.08,2.17-10-9.64A10.52,10.52,0,1,0,135,21.13l8.7,8.29Z"/><path class="cls-1" d="M149,97.77l-5.41-6.1A51,51,0,1,1,220,24l5.41,6.1ZM181.79,9.83a48,48,0,0,0-35.92,79.85l3.42,3.86,71.9-63.7L217.77,26A47.93,47.93,0,0,0,181.79,9.83Z"/><path class="cls-1" d="M188.16,75.75a15.35,15.35,0,0,1-10.33-4l2-2.22a12.39,12.39,0,0,0,17.56-.91,12.56,12.56,0,0,0,1.14-15.28l2.51-1.65a15.56,15.56,0,0,1-1.42,18.94A15.31,15.31,0,0,1,189,75.73Z"/><rect class="cls-1" x="127.48" y="47.92" width="94.82" height="3" transform="translate(10.21 126.29) rotate(-40.8)"/><rect class="cls-1" x="221.82" y="63.63" width="12.48" height="3"/><rect class="cls-1" x="188.02" y="93.68" width="3" height="12.48"/><rect class="cls-1" x="213.13" y="81.4" width="3" height="12.48" transform="translate(0.89 177.43) rotate(-45)"/><path class="cls-1" d="M55.74,97.06a4.11,4.11,0,1,0,4.1-4.12A4.1,4.1,0,0,0,55.74,97.06Z"/><path class="cls-1" d="M48.22,256.83a2.7,2.7,0,1,0,2.7-2.71A2.7,2.7,0,0,0,48.22,256.83Z"/><path class="cls-1" d="M65.21,265.74h-3v-9.89a11.57,11.57,0,1,0-23.13,0v9.62h-3v-9.62a14.57,14.57,0,1,1,29.13,0Z"/><rect class="cls-1" x="46.11" y="269.02" width="8.54" height="3"/><path class="cls-1" d="M55.88,244l-1.83-2.37a5.54,5.54,0,1,0-6.81,0L45.4,244a8.55,8.55,0,1,1,10.48,0Z"/><path class="cls-1" d="M38.8,249.58a17.12,17.12,0,1,1,23.94-.25l-2.12-2.12a14.11,14.11,0,1,0-19.74.2Z"/><path class="cls-1" d="M45.11,224.82h-3V202.26a8.06,8.06,0,1,1,16.11,0v21.17h-3V202.26a5.06,5.06,0,1,0-10.11,0Z"/><polygon class="cls-1" points="74.39 329.45 52.46 269.22 65.59 264.44 75 289.82 72.19 290.86 63.81 268.28 56.31 271.01 77.2 328.42 74.39 329.45"/><polygon class="cls-1" points="17.88 352.07 15.06 351.04 44.28 270.76 37.48 268.28 7.75 348.39 4.94 347.35 35.7 264.44 48.13 268.96 17.88 352.07"/><rect class="cls-1" x="-7.02" y="365.97" width="24.63" height="3" transform="translate(-345.2 256.93) rotate(-71.67)"/><path class="cls-1" d="M10.79,358.13a7.15,7.15,0,1,1,5.06-2.1,7.15,7.15,0,0,1-5.06,2.1Zm0-11.3a4.15,4.15,0,1,0,0,8.3A4.17,4.17,0,0,0,14.94,351,4.15,4.15,0,0,0,10.79,346.83Z"/><path class="cls-1" d="M49.45,334.47c-5,0-10.08-.24-15-.72l.29-3a154.29,154.29,0,0,0,31.36-.2l.33,3A156.23,156.23,0,0,1,49.45,334.47Z"/><path class="cls-1" d="M49.45,323.27A137.09,137.09,0,0,1,.88,314.59l1.06-2.8a134.34,134.34,0,0,0,47.51,8.48,140.15,140.15,0,0,0,17.43-1.09l.38,3A144.46,144.46,0,0,1,49.45,323.27Z"/><rect class="cls-1" x="258.69" y="78.33" width="3" height="70.2"/><polygon class="cls-1" points="394.37 173.93 391.37 173.93 391.37 111.44 339.64 53.01 260.19 53.01 260.19 50.01 340.99 50.01 341.43 50.51 394.37 110.31 394.37 173.93"/><polygon class="cls-1" points="392.87 112.38 338.81 112.38 338.81 51.51 341.81 51.51 341.81 109.38 392.87 109.38 392.87 112.38"/><polygon class="cls-1" points="310.4 142.91 307.4 142.91 307.4 127.11 278.42 127.11 278.42 138.26 275.42 138.26 275.42 124.11 310.4 124.11 310.4 142.91"/><polygon class="cls-1" points="291.54 96.53 283.16 88.15 285.28 86.03 291.54 92.29 305.12 78.72 307.24 80.84 291.54 96.53"/><polygon class="cls-1" points="310.4 105.54 275.42 105.54 275.42 71.04 308.9 71.04 308.9 74.04 278.42 74.04 278.42 102.54 307.4 102.54 307.4 95.17 310.4 95.17 310.4 105.54"/><rect class="cls-1" x="330.38" y="131.49" width="46.47" height="3"/><path class="cls-1" d="M257.25,65.91A2.88,2.88,0,1,0,260.13,63,2.89,2.89,0,0,0,257.25,65.91Z"/><rect class="cls-1" x="121.36" y="99.95" width="3" height="9.38"/><rect class="cls-1" x="129.63" y="113.56" width="9.38" height="3"/><rect class="cls-1" x="121.36" y="122.35" width="3" height="9.38"/><rect class="cls-1" x="107.06" y="113.56" width="9.38" height="3"/><polygon class="cls-1" points="156.97 142.91 153.97 142.91 153.97 120.85 250.46 120.85 250.46 123.85 156.97 123.85 156.97 142.91"/><polygon class="cls-2" points="273.31 277.14 289.52 269.87 274.15 255.98 273.31 277.14"/><polygon class="cls-2" points="314.34 300.06 302.35 296.03 297.75 308.6 284.99 303.77 280.4 316.29 314.53 392.87 348.89 377.56 314.34 300.06"/><path class="cls-3" d="M311.31,401.68l-44.13-99L269,256.87l35.29,29.29.14.32,44,98.67Zm-41.1-99.56,42.62,95.6,31.61-14.09L301.82,288l-30.07-25Z"/><rect class="cls-3" x="269.58" y="276.93" width="18.04" height="3" transform="translate(-89.24 137.58) rotate(-24.03)"/><polygon class="cls-3" points="275.03 314.44 272.2 313.44 277.32 298.92 290.08 304.22 294.68 291.19 308.92 297.08 307.77 299.85 296.45 295.17 291.86 308.2 279.09 302.91 275.03 314.44"/><path class="cls-3" d="M332.07,418.63a20.34,20.34,0,0,1-18.58-12l2.74-1.22a17.31,17.31,0,0,0,31.62-14.1l2.74-1.22a20.31,20.31,0,0,1-18.52,28.58Z"/><rect class="cls-3" x="306.12" y="380.86" width="37.62" height="3" transform="translate(-127.47 165.31) rotate(-24.01)"/><rect class="cls-3" x="306.52" y="302.58" width="3" height="83.74" transform="translate(-113.56 155.25) rotate(-24.03)"/><rect class="cls-2" x="126.88" y="307.56" width="97.74" height="24.96"/><rect class="cls-2" x="132.7" y="193.67" width="95.67" height="64.47"/><polygon class="cls-3" points="403.23 400.03 400.23 400.03 400.23 180.37 379.65 180.37 379.65 177.37 403.23 177.37 403.23 400.03"/><rect class="cls-3" x="366.48" y="398.53" width="13.17" height="3"/><path class="cls-3" d="M241,415.88a34.94,34.94,0,0,1-28.4-14.35h-134V177.37h21.66v3H81.52V398.53h132.6l.45.65a32.24,32.24,0,0,0,52.75,0l.45-.65h33v3H269.34A34.93,34.93,0,0,1,241,415.88Z"/><path class="cls-3" d="M240,385.33a1.55,1.55,0,0,1-1.05-.42l-7.5-7.25A50.71,50.71,0,0,0,196,363.47H100.18a1.5,1.5,0,0,1-1.5-1.5V149.29a1.5,1.5,0,0,1,1.5-1.5H196a53.72,53.72,0,0,1,37.55,15l7.5,7.25a1.51,1.51,0,0,1,.46,1.08V383.83a1.51,1.51,0,0,1-1.5,1.5ZM101.68,360.47H196a53.72,53.72,0,0,1,37.55,15l5,4.79V171.78l-7.05-6.8A50.71,50.71,0,0,0,196,150.79H101.68Z"/><path class="cls-3" d="M240,385.33a1.5,1.5,0,0,1-1.5-1.5V171.15a1.5,1.5,0,0,1,.45-1.08l7.5-7.25a53.74,53.74,0,0,1,37.55-15h95.83a1.5,1.5,0,0,1,1.5,1.5V362a1.5,1.5,0,0,1-1.5,1.5H348.74v-3h29.61V150.79H284A50.71,50.71,0,0,0,248.56,165l-7,6.8V380.29l4.95-4.79a53.74,53.74,0,0,1,37.55-15v3a50.71,50.71,0,0,0-35.46,14.19l-7.5,7.25A1.53,1.53,0,0,1,240,385.33Z"/><path class="cls-3" d="M240,404.41A1.53,1.53,0,0,1,239,404l-7.5-7.24A50.67,50.67,0,0,0,196,382.56H100.18v-3H196a53.68,53.68,0,0,1,37.55,15l6.46,6.24,6.45-6.24a53.69,53.69,0,0,1,37.55-15h8.89v3H284a50.67,50.67,0,0,0-35.46,14.19l-7.5,7.24A1.5,1.5,0,0,1,240,404.41Z"/><rect class="cls-3" x="357.18" y="379.56" width="22.67" height="3"/><path class="cls-3" d="M224.62,277h-2.06v-3h2.06Zm-6.06,0h-4v-3h4Zm-8,0h-4v-3h4Zm-8,0h-4v-3h4Zm-8,0h-4v-3h4Zm-8,0h-4v-3h4Zm-8,0h-4v-3h4Zm-8,0h-4v-3h4Zm-8,0h-4v-3h4Zm-8,0h-4v-3h4Zm-8,0h-4v-3h4Zm-8,0h-4v-3h4Zm-8,0h-4v-3h4Zm-8,0h-4v-3h4Z"/><path class="cls-3" d="M219.88,326.89H119.14v-28H219.88Zm-97.74-3h94.74v-22H122.14Z"/><path class="cls-3" d="M361,299.39h-4v-3h4Zm-8,0h-4v-3h4Zm-8,0h-4v-3h4Zm-8,0h-4v-3h4Zm-8,0h-4v-3h4Zm-8,0h-4v-3h4Zm-8,0H311v-3H313Z"/><rect class="cls-3" x="326.53" y="320.42" width="34.43" height="3"/><rect class="cls-3" x="300.76" y="273.28" width="60.19" height="3"/><path class="cls-3" d="M222.89,250.17H124.22V182.7h98.67Zm-95.67-3h92.67V185.7H127.22Z"/><path class="cls-3" d="M212,221.51c-4.38,0-6.65-1.76-8.65-3.31s-3.46-2.69-6.81-2.69-5,1.25-6.82,2.69-4.27,3.31-8.65,3.31-6.64-1.76-8.65-3.31c-1.85-1.44-3.45-2.69-6.81-2.69s-4.95,1.25-6.8,2.69c-2,1.55-4.27,3.31-8.65,3.31s-6.65-1.76-8.65-3.31-3.46-2.69-6.81-2.69v-3c4.38,0,6.65,1.76,8.65,3.32,1.85,1.44,3.46,2.68,6.81,2.68s4.95-1.24,6.81-2.68,4.27-3.32,8.64-3.32,6.65,1.76,8.65,3.32,3.46,2.68,6.81,2.68,5-1.24,6.82-2.68,4.27-3.32,8.65-3.32,6.64,1.76,8.65,3.32c1.85,1.44,3.46,2.68,6.81,2.68Z"/><path class="cls-3" d="M305.45,215.93a5.24,5.24,0,1,0,5.24-5.24A5.24,5.24,0,0,0,305.45,215.93Z"/><path class="cls-3" d="M310.69,237.39a21.47,21.47,0,1,1,21.47-21.47A21.49,21.49,0,0,1,310.69,237.39Zm0-39.94a18.47,18.47,0,1,0,18.47,18.47A18.49,18.49,0,0,0,310.69,197.45Z"/><rect class="cls-3" x="309.19" y="175.98" width="3" height="19.97"/><rect class="cls-3" x="283.25" y="190.96" width="3" height="19.99" transform="translate(-31.65 347.07) rotate(-60)"/><rect class="cls-3" x="274.76" y="229.4" width="19.99" height="3" transform="matrix(0.87, -0.5, 0.5, 0.87, -77.3, 173.34)"/><rect class="cls-3" x="309.19" y="235.89" width="3" height="19.97"/><rect class="cls-3" x="335.12" y="220.9" width="3" height="19.99" transform="translate(-31.66 406.96) rotate(-60)"/><rect class="cls-3" x="326.63" y="199.45" width="19.99" height="3" transform="translate(-55.38 195.26) rotate(-30)"/></g></g></svg>