<svg xmlns="http://www.w3.org/2000/svg" viewBox="0 0 410.93 346.17"><defs><style>.cls-1,.cls-2{fill:#008fe5;}.cls-2,.cls-6{fill-rule:evenodd;}.cls-3,.cls-6{fill:#0af;}.cls-4{fill:#445462;}.cls-5{fill:#fff;}</style></defs><title>Asset 6</title><g id="Layer_2" data-name="Layer 2"><g id="Layer_1-2" data-name="Layer 1"><path class="cls-1" d="M83,262.75a8.41,8.41,0,0,1-8.22-10.25A8.4,8.4,0,1,1,83,262.75Zm0-12.82a4.35,4.35,0,0,0-2.35.69,4.41,4.41,0,1,0,6.66,4.68A4.41,4.41,0,0,0,83.94,250,4.51,4.51,0,0,0,83,249.93Z"/><path class="cls-1" d="M12.28,251.8,1.56,249.39A2,2,0,0,1,.05,247l4.8-21.43a2,2,0,0,1,2.39-1.51L18,226.46l-.88,3.9-8.76-2L4.39,245.93l8.76,2Z"/><path class="cls-1" d="M66.81,251.8,52,209.9a2,2,0,0,1,3.23-2.14L90,239.44l-2.7,2.95L58.42,216.08l12.16,34.39Z"/><path class="cls-1" d="M110.87,301.15a2,2,0,0,1-1.4-.57L78.38,270.05l2.8-2.85,25.46,25-11-35.59,3.83-1.18,13.27,43.14a2,2,0,0,1-.87,2.3A2,2,0,0,1,110.87,301.15Z"/><path class="cls-1" d="M83,271a16.63,16.63,0,1,1,8.88-2.58A16.66,16.66,0,0,1,83,271ZM83,241.7a12.64,12.64,0,1,0,10.7,5.87A12.57,12.57,0,0,0,83,241.7Z"/><path class="cls-1" d="M82.56,310.86a55.93,55.93,0,0,1-6.21-.36l.46-4a50.57,50.57,0,0,0,5.76.34Zm6.21-.32-.43-4a52.09,52.09,0,0,0,5.7-.94l.87,3.9A55.33,55.33,0,0,1,88.77,310.54Zm-18.55-1.09a56.47,56.47,0,0,1-6-1.72L65.56,304a53.48,53.48,0,0,0,5.56,1.6Zm30.68-1.6-1.3-3.79a52.54,52.54,0,0,0,5.35-2.17l1.71,3.61A55.19,55.19,0,0,1,100.9,307.85Zm-42.4-2.48a55.31,55.31,0,0,1-5.45-3L55.16,299a53.91,53.91,0,0,0,5.06,2.77ZM48,298.81a55.31,55.31,0,0,1-4.66-4.12l2.81-2.84a52.53,52.53,0,0,0,4.33,3.82Zm-8.83-8.73a55.16,55.16,0,0,1-3.64-5l3.37-2.16a52.12,52.12,0,0,0,3.38,4.69Zm-6.71-10.45A58.73,58.73,0,0,1,30,273.92l3.76-1.37A51.73,51.73,0,0,0,36,277.86ZM28.17,268A54.75,54.75,0,0,1,27,261.85l4-.51A51.63,51.63,0,0,0,32.06,267Zm-1.56-12.32v-.84c0-1.79.08-3.59.25-5.37l4,.38c-.16,1.65-.24,3.33-.24,5v.79ZM31.7,244.1l-3.91-.81a56,56,0,0,1,1.6-6l3.8,1.24A55.9,55.9,0,0,0,31.7,244.1Zm3.59-11-3.65-1.66A56.59,56.59,0,0,1,34.53,226L38,228A51.81,51.81,0,0,0,35.29,233.14Zm5.9-9.91L38,220.82a55.38,55.38,0,0,1,4-4.74l2.9,2.75A52.33,52.33,0,0,0,41.19,223.23Zm8-8.35-2.58-3.06.49-.41,2.53,3.1Z"/><path class="cls-1" d="M60.46,207.61,58.74,204a55.19,55.19,0,0,1,5.76-2.35l1.3,3.78A51.52,51.52,0,0,0,60.46,207.61Zm10.9-3.75-.87-3.9a57.62,57.62,0,0,1,6.13-1l.44,4A51.7,51.7,0,0,0,71.36,203.86ZM88.59,203a53,53,0,0,0-5.77-.34v-4A56.09,56.09,0,0,1,89,199Z"/><rect class="cls-1" x="51.53" y="266.03" width="20.19" height="4" transform="translate(-133.87 74.59) rotate(-32.36)"/><path class="cls-1" d="M38.86,201.5l-4-.31L36,186.75a2,2,0,0,1,.93-1.53,2,2,0,0,1,1.78-.18L52,190.12l-1.42,3.73-10.83-4.12Z"/><path class="cls-1" d="M126.77,326a1.94,1.94,0,0,1-.71-.13l-14.84-5.65,1.42-3.74,12.34,4.7,1.08-13.57,4,.32-1.29,16.23a2,2,0,0,1-2,1.84Z"/><path class="cls-1" d="M27.69,301.62l-14.84-1.15a2,2,0,0,1-1.72-2.7l5.31-14,3.74,1.42-4.36,11.51,12.18.94Z"/><path class="cls-1" d="M81.85,327.49A72.46,72.46,0,1,1,94,183.59l-.67,3.95A68.46,68.46,0,1,0,128,305.61l2.69,3A72.66,72.66,0,0,1,81.85,327.49Z"/><path class="cls-1" d="M397.8,328.92H283.93v-4H396.17L406,277l-10-57a2,2,0,0,1,0-.73l10.85-55.37-10.71-50.27H297.5v-4H397.8a2,2,0,0,1,1.95,1.58l11.14,52.26a2,2,0,0,1,0,.8L400,219.67l10,57a2.1,2.1,0,0,1,0,.75l-10.29,49.92A2,2,0,0,1,397.8,328.92Z"/><rect class="cls-1" x="345.95" y="162.82" width="63.38" height="4"/><rect class="cls-1" x="332" y="277.01" width="77.32" height="4" transform="translate(-1.49 2) rotate(-0.31)"/><path class="cls-1" d="M63.37,177.44a9.73,9.73,0,0,1-3.89-18.65l1.6,3.67a5.73,5.73,0,1,0,5.16.3l2-3.46a9.73,9.73,0,0,1-4.88,18.14Z"/><path class="cls-1" d="M120.72,96.29a10.18,10.18,0,0,1-4-19.56l1.56,3.68a6.19,6.19,0,1,0,4.73,0l1.51-3.71a10.18,10.18,0,0,1-3.84,19.62Z"/><path class="cls-1" d="M120.72,83.57a2,2,0,0,1-1.49-.67C118,81.55,89.76,49.65,89.76,31c0-17.95,13-31,31-31s31,13,31,31c0,18.65-28.27,50.58-29.47,51.93A2,2,0,0,1,120.72,83.57Zm0-79.57c-15.62,0-27,11.34-27,27,0,14.86,21.1,40.66,27,47.54,5.87-6.88,27-32.71,27-47.54C147.69,15.34,136.35,4,120.72,4Zm0,40.17a12.82,12.82,0,1,1,12.82-12.81A12.83,12.83,0,0,1,120.72,44.17Zm0-21.63a8.82,8.82,0,1,0,8.82,8.82A8.83,8.83,0,0,0,120.72,22.54Z"/><path class="cls-1" d="M120.72,83.57a2,2,0,0,1-1.49-.67C118,81.55,89.76,49.65,89.76,31c0-17.95,13-31,31-31s31,13,31,31c0,18.65-28.27,50.58-29.47,51.93A2,2,0,0,1,120.72,83.57Zm0-79.57c-15.62,0-27,11.34-27,27,0,14.86,21.1,40.66,27,47.54,5.87-6.88,27-32.71,27-47.54C147.69,15.34,136.35,4,120.72,4Z"/><path class="cls-1" d="M34.26,127.36a24.91,24.91,0,0,1-6.44-.84l1-3.86a21.43,21.43,0,0,0,5.42.7ZM21.8,124a25,25,0,0,1-5.16-3.94l2.81-2.84a20.84,20.84,0,0,0,4.35,3.31ZM12.65,115a24.64,24.64,0,0,1-2.52-6L14,107.91a21.39,21.39,0,0,0,2.12,5ZM9.23,102.55v-.25A25.13,25.13,0,0,1,10,96.08l3.87,1a21,21,0,0,0-.66,5.25v.16ZM15.93,92l-3.48-2a25,25,0,0,1,3.9-5.2l2.86,2.79A21.17,21.17,0,0,0,15.93,92Zm7.57-7.75-2.05-3.44a25,25,0,0,1,6-2.57l1.09,3.84A21,21,0,0,0,23.5,84.26Zm10.41-3-.06-4h6v4Zm66,0h-6v-4h6Zm-12,0h-6v-4h6Zm-12,0h-6v-4h6Zm-12,0h-6v-4h6Zm-12,0h-6v-4h6Z"/><path class="cls-1" d="M113.33,170.57h-2.8v-4h2.8a19.86,19.86,0,0,0,2.89-.21l.59,3.95A23.87,23.87,0,0,1,113.33,170.57Zm-8.8,0h-6v-4h6Zm-12,0h-6v-4h6Zm-12,0h-6v-4h6Zm42.55-2.14-1.67-3.63a19.57,19.57,0,0,0,4.55-2.94l2.62,3A23.27,23.27,0,0,1,123.08,168.43Zm9.79-8.48-3.36-2.17a19.51,19.51,0,0,0,2.29-4.92l3.83,1.16A23.56,23.56,0,0,1,132.87,160Zm3.74-12.39-4-.05v-.58a19.18,19.18,0,0,0-.62-4.84l3.88-1a23.37,23.37,0,0,1,.74,5.84Zm-6.69-10.46a19.75,19.75,0,0,0-3.39-4.23l2.73-2.92a23.67,23.67,0,0,1,4.1,5.1Zm-7.82-7.35A19.41,19.41,0,0,0,117,128l.75-3.92a23.14,23.14,0,0,1,6.19,2.12Zm-28.7-1.91,0-4,6-.06,0,4Zm12-.11,0-4,6-.06,0,4Z"/><path class="cls-2" d="M65.84,106.77h-5l-9.54,24H56.7l1.36-3.43H68.65L70,130.8h5.34Zm-6.18,15.45,3.7-9.3,3.68,9.3Z"/><path class="cls-1" d="M63.65,165.37a2,2,0,0,1-1.49-.67c-1-1.16-25.36-28.61-25.36-44.74,0-15.56,11.29-26.86,26.85-26.86S90.51,104.4,90.51,120c0,16.11-24.33,43.58-25.36,44.74a2,2,0,0,1-1.5.67Zm0-68.27C50.41,97.1,40.8,106.71,40.8,120c0,12.48,17.56,34.11,22.85,40.35,5.3-6.24,22.86-27.9,22.86-40.35C86.51,106.71,76.9,97.1,63.65,97.1Z"/><path class="cls-1" d="M340.19,106.15l-7.5-20a2,2,0,0,1,1.16-2.57l32.61-12.3a2.1,2.1,0,0,1,1.54,0,2,2,0,0,1,1,1.12l3.51,9.34,17.31-28.92L357.79,42.49l3.51,9.34a2,2,0,0,1-1.17,2.57L327.52,66.7a2,2,0,0,1-2.58-1.17L313.32,34.58A2,2,0,0,1,314.49,32l9.35-3.51-29-17.42L284.51,43.26l9.35-3.51a2,2,0,0,1,2.57,1.17l11.62,31-3.74,1.4L293.39,44.19,282,48.46A2,2,0,0,1,279.43,46l12.4-38.53a2,2,0,0,1,2.93-1.1L329.45,27.2a2,2,0,0,1-.33,3.58L317.77,35,328,62.25l28.87-10.89L352.59,40a2,2,0,0,1,.42-2.09,2,2,0,0,1,2.07-.52l38.4,12.45a2,2,0,0,1,1.26,1.2,2,2,0,0,1-.16,1.73L373.85,87.42a2,2,0,0,1-3.59-.33L366,75.74,337.13,86.63l6.8,18.12Z"/><path class="cls-1" d="M398,221.66h-6v-4h6Zm-12,0h-6v-4h6Zm-12,0h-6v-4h6Zm-12,0h-6v-4h6Zm-12,0h-.73v-4H350Z"/><path class="cls-3" d="M204.31,338.48a86.4,86.4,0,0,1-16.73-8c-7.59-4.72-8.94-7.24-9.41-8.24-2.2-4.65.52-6.33-.74-13.93-1.39-8.43-5.42-10.2-3.72-14.47.78-1.95,2.56-4.06,3.9-8.27a4.5,4.5,0,0,0,0-3.42c-.39-.72-1.25-1.08-2.68-2.11-2.69-1.93-.4-4.65-.81-9.29s1.87-3.4,1.42-8.59-.26-3-3-5.68a9.81,9.81,0,0,0-3.39-2.5c-1.68-.56-2.28.4-3.32-.16-1.36-.72-1-2.78-1.66-5.87-.45-2.22-1.18-5.81-3.48-7.54-1-.78-7-1.66-11.05,3.07-.82.95.6,7.23-.23,8.17-3.53,4-7,7.48-8.84,7.31-5.79-.53-3.08-12.71-3.08-12.71-7.88-1.21-7.53-5.17-12.59-7-2.19-.79-4.87-3.16-6.52-10.53-3.29-4-7.88-11.89-5.27-15.59,1.45-2-.17.14,3.34-2.18,1.48-1-.49-7.48,1.85-11.88,3.93-7.38,12.19-13.72,12.25-13.73.86-.11,9.56-2.92,10.26-2.95.91,0,1.27,1.41,2.54,2,1.48.66,3.25-.35,4-.77,6.23-3.37,9.46-1.5,15.55-5.95,2.39-1.74,7.68-5.53,8.68-11.57.61-3.65-.89-4.91,0-9.51.86-4.38,2.53-4.84,3.73-9.1.4-1.44,2.06-7.35-.42-12.4-3.69-7.53-14.16-8.23-14.88-8.27l-9.72-14.06-9.92,4.34c-8,7-14.21,13.31-18.61,18-6.58,7-8.79,10.12-9.92,11.78-3.42,5.05-5.26,9.14-8.68,16.75-1.93,4.29-3.59,8.5-6.82,16.74-3.58,9.13-1.87,13.7-2.08,14.88-.26,1.49-4.38,15.88,2.83,26.7,0,0,7.31,1.85,11.65,5s6.2,8.06,6.2,9.92c0,4.36-1.9,6-1.24,11.79.35,3,1,2.82,1.24,5.56.41,4.92-1.59,7.47-2.48,11.58s-.15,7,1.24,12.81c3.46,14.48,15.41,27.28,17.78,29.77a85.73,85.73,0,0,0,16.61,15.1,110.72,110.72,0,0,0,20,10.6c6,2.59,8.39,1.82,16.51,5.35,7.32,3.18,9.23,2.4,12.6,3.06,7.85,1.53,13.49,1.76,13.65-.21C211,341.42,209.79,340.23,204.31,338.48Zm-53-28.35a9.49,9.49,0,1,1,9.48-9.49A9.49,9.49,0,0,1,151.29,310.13Z"/><path class="cls-3" d="M335.74,233.87c-2-.52-16.67-1-16.67-1-.37,0-8.19-.09-9.36-8s-1.72-12.32-1.87-14.94c-3.4-4.36-7.41-9.83-11.06-15.6-5.59.56-15.7,1.37-20.59.41-7-1.37-9.18-3.39-13.09-7.48s-2.59-8.15-10.54-5.94-8.52,3.91-13.65,4.9-4.81,1.6-9.23,2.92c-.1.05-.19.05-.28.09-3.49,1.09-8.34,2-9.7,4.66-1.7,3.39-1.18,3.91-3.39,7.49s-7.53,6.49-7.67,8.19-1.18,16.66,0,23.82,4.56,7.67,8.14,12.24,5.13,5.46,9.7,5.27,8.38-2,14.83-2.54,10.87-1.7,13.27,1.88.66,8.15,3.58,11.39,7.3-.18,7.48,6.83-1.36,16.48-1.55,21.75,6.31,14.31,7.67,18.74,2.4,5.08,8,5.08,9.36-.47,15-6.45,8.19-10.54,11.58-15.16,6.31-9.51,6.63-15-4.61-4.94,2-11.39,12.29-12.24,16.52-18.36S337.81,234.38,335.74,233.87Zm-46.64,31.5a10.12,10.12,0,1,1,10.12-10.12A10.12,10.12,0,0,1,289.1,265.37Z"/><path class="cls-4" d="M141.82,220.86a12,12,0,1,1,12-12A12,12,0,0,1,141.82,220.86Zm0-19.06a7,7,0,1,0,7,7A7,7,0,0,0,141.82,201.8Z"/><path class="cls-4" d="M134.9,248.71c-7.88-9.81-21.11-28.08-21.11-40.22,0-16,12-28,28-28s28,12,28,28c0,11.4-11.3,27.93-20.77,39.79l-3.91-3.12c12.51-15.65,19.68-29,19.68-36.67,0-13.35-9.69-23-23-23s-23,9.68-23,23c0,7.75,7.3,21.26,20,37.08Z"/><path class="cls-3" d="M234.67,172.43c-4.62,1-7.82-2.21-9.56,0s-4.94,7.63-4.42,9.51c.42,1.46,4.66,2.5,7.2,3.16,5-.38,10.12-1.27,12.57-3,3.91-2.73,10.73-5.27,12.57-5.27.7,0,4.09.23,8,.33,2.45,2.82,5.27,5,9,5.6,3.48.61,5.69.28,7.06-.28a3,3,0,0,1,3.86,1.22A11.76,11.76,0,0,0,282.5,186c2.73,3.25,3.95.66,3.95.66s-1.93-3.91.61-3.91a10.68,10.68,0,0,1,3.72.82c-2.72-5.64-4.53-11.11-4.53-15.68,0-17.73,13.23-29.53,29.54-29.53q.73,0,1.47,0c-1.86-2.08-3.64-4-5.29-5.59A7.44,7.44,0,0,0,310,134c-3.16,2.69-10,5.89-10,5.89s-2.69,1.36-4.05,0,1.46-10-3.63-10.5-20.62-.52-28.29,4.75-13.09,12.76-12,14,2.21,1.5,2.21,3.9c0,1.79,1.23,4.95-.14,7.3-.85.56-2.16,1.6-3.67,2.45-.24.09-.47.23-.75.33l0,0c-2.4,1.18-5.22,1.65-7.77-.94-.47-.52-.23-1.65-.32-2.63-.38-3.25-.76-7.49-1-8.76-.33-1.69-2.21-6.12-3.91-5.27s-8,8.47-10.35,9.18,1.47,1.67,1.33,3.69-4.06,6.15-.82,5.68,7.49-3.58,9-2.92,3.07,5.13,2.74,7.34S239.28,171.4,234.67,172.43Z"/><path class="cls-3" d="M347.53,201.1a125.67,125.67,0,0,0-5.35-20.59c-6.05,14.26-19.2,30.55-24.3,36.58.05.15,2.24.85,2.3,1,1.47,3.72.5,6.14,2.46,8.07,1.1,1.08,1.27,1.88,3.78,2.06,3,.21,14.52,1.64,19.31-9.15C349.36,210.91,348.1,202,347.53,201.1Z"/><path class="cls-4" d="M315.79,222a2.5,2.5,0,0,1-1.87-.84c-1.23-1.38-30.17-34-30.17-53.25,0-18.56,13.47-32,32-32,18.26,0,32,13.77,32,32,0,19.19-28.94,51.87-30.17,53.25A2.5,2.5,0,0,1,315.79,222Zm0-81.12c-15.67,0-27,11.37-27,27,0,14.72,20.64,40.21,27,47.76,6.4-7.56,27-33.07,27-47.76C342.82,152.27,331.45,140.9,315.79,140.9Zm0,40.95a13.53,13.53,0,1,1,13.52-13.52A13.54,13.54,0,0,1,315.79,181.85Zm0-22a8.53,8.53,0,1,0,8.52,8.53A8.54,8.54,0,0,0,315.79,159.8Z"/><path class="cls-4" d="M315.79,222a2.5,2.5,0,0,1-1.87-.84c-1.23-1.38-30.17-34-30.17-53.25,0-18.56,13.47-32,32-32,18.26,0,32,13.77,32,32,0,19.19-28.94,51.87-30.17,53.25A2.5,2.5,0,0,1,315.79,222Zm0-81.12c-15.67,0-27,11.37-27,27,0,14.72,20.64,40.21,27,47.76,6.4-7.56,27-33.07,27-47.76C342.82,152.27,331.45,140.9,315.79,140.9Z"/><path class="cls-4" d="M226,316.83a2.46,2.46,0,0,1-1.86-.84c-.89-1-21.64-24.41-21.64-38.35,0-13.4,10.1-23.51,23.5-23.51a23,23,0,0,1,23.51,23.51c0,13.92-20.76,37.36-21.64,38.35a2.5,2.5,0,0,1-1.87.84Zm0-57.7c-10.72,0-18.5,7.79-18.5,18.51,0,9,12,25.16,18.5,32.87,6.5-7.72,18.51-23.85,18.51-32.87C244.51,266.92,236.72,259.13,226,259.13Zm0,29.13a10.34,10.34,0,1,1,10.34-10.34A10.35,10.35,0,0,1,226,288.26Zm0-15.68a5.34,5.34,0,1,0,5.34,5.34A5.35,5.35,0,0,0,226,272.58Z"/><path class="cls-4" d="M226,316.83a2.46,2.46,0,0,1-1.86-.84c-.89-1-21.64-24.41-21.64-38.35,0-13.4,10.1-23.51,23.5-23.51a23,23,0,0,1,23.51,23.51c0,13.92-20.76,37.36-21.64,38.35a2.5,2.5,0,0,1-1.87.84Zm0-57.7c-10.72,0-18.5,7.79-18.5,18.51,0,9,12,25.16,18.5,32.87,6.5-7.72,18.51-23.85,18.51-32.87C244.51,266.92,236.72,259.13,226,259.13Z"/><path class="cls-4" d="M172.81,206.61l-3.51-3.56,5.69-5.61L178.5,201Zm11.39-11.23-3.51-3.56,5.7-5.62,3.5,3.56Zm11.39-11.24-3.51-3.56,5.7-5.61,3.51,3.56ZM207,172.91l-3.51-3.56,5.7-5.62,3.51,3.56Z"/><path class="cls-4" d="M216.75,318.17l-7.81-1.71,1.07-4.88,7.81,1.71Zm-15.63-3.42L193.31,313l1.07-4.89,7.81,1.72Zm-15.63-3.42-7.81-1.72,1.07-4.88,7.81,1.71Zm-15.63-3.43-7.81-1.71,1.07-4.88,7.81,1.71Z"/><path class="cls-4" d="M145.41,291.55l-.08-.49,4.94-.79.07.49Zm-1.34-8.39-1.25-7.9,4.93-.79,1.26,7.9Zm-2.51-15.8-1.26-7.9,4.94-.79,1.26,7.9Z"/><path class="cls-4" d="M276.93,253.44l-7.16-3.55,2.21-4.48,7.17,3.55Zm-14.33-7.1-7.17-3.55,2.22-4.48,7.17,3.55Zm-14.34-7.1-7.17-3.55,2.22-4.48,7.17,3.55Zm-14.34-7.1-7.17-3.55,2.22-4.48,7.17,3.55ZM219.58,225,213,221.76l2.22-4.48,6.63,3.28Z"/><path class="cls-4" d="M300.33,246.89l-4.15-2.79,4.48-6.64,4.14,2.8Zm8.95-13.26-4.15-2.8,4.48-6.63,4.14,2.8Z"/><path class="cls-4" d="M289.1,267.87a12.62,12.62,0,1,1,12.62-12.62A12.63,12.63,0,0,1,289.1,267.87Zm0-20.23a7.62,7.62,0,1,0,7.62,7.61A7.62,7.62,0,0,0,289.1,247.64Z"/><circle class="cls-5" cx="215.14" cy="219.52" r="10.12" transform="matrix(0.99, -0.16, 0.16, 0.99, -32.39, 37.3)"/><path class="cls-4" d="M215.14,232.14a12.62,12.62,0,1,1,12.62-12.62A12.63,12.63,0,0,1,215.14,232.14Zm0-20.24a7.62,7.62,0,1,0,7.62,7.62A7.62,7.62,0,0,0,215.14,211.9Z"/><path class="cls-4" d="M151.92,313.89a12.62,12.62,0,1,1,12.62-12.61A12.63,12.63,0,0,1,151.92,313.89Zm0-20.23a7.62,7.62,0,1,0,7.62,7.62A7.63,7.63,0,0,0,151.92,293.66Z"/><path class="cls-4" d="M225.26,326.46a9.56,9.56,0,0,1-4.93-17.75l2.58,4.29a4.56,4.56,0,1,0,6.91,3.91,4.58,4.58,0,0,0-1.71-3.57l3.12-3.9a9.56,9.56,0,0,1-6,17Z"/><path class="cls-4" d="M141.82,261.56a9.35,9.35,0,1,1,9.35-9.35A9.35,9.35,0,0,1,141.82,261.56Zm0-13.7a4.35,4.35,0,1,0,4.35,4.35A4.35,4.35,0,0,0,141.82,247.86Z"/><path class="cls-4" d="M315.79,232.7A9.35,9.35,0,0,1,311.67,215l2.2,4.49a4.35,4.35,0,1,0,4.35.3l2.8-4.15a9.36,9.36,0,0,1-5.23,17.11Z"/><path class="cls-4" d="M220.26,346.17a130.5,130.5,0,0,1-65.42-17.64c-62.68-36.19-84.24-116.64-48-179.32a131.34,131.34,0,0,1,220-11.42l-4.05,2.93a126.43,126.43,0,1,0,19,38.93l-.6-1.88,4.77-1.5.62,1.94a131.28,131.28,0,0,1-92.09,163.43A131.93,131.93,0,0,1,220.26,346.17Z"/><path class="cls-4" d="M215.14,155.46a2.49,2.49,0,0,1-1.86-.83C211.06,152.15,159,93.44,159,59.33c0-16,5.84-30.41,16.46-40.68C185.8,8.7,199.87,3.22,215.14,3.22s29.35,5.48,39.65,15.44c10.61,10.26,16.46,24.7,16.46,40.67,0,34.05-52,92.81-54.24,95.3A2.51,2.51,0,0,1,215.14,155.46Zm0-147.24c-29.61,0-51.1,21.5-51.1,51.11,0,28.73,41.7,78.88,51.1,89.82,9.41-11,51.11-61.15,51.11-89.82C266.25,29.72,244.76,8.22,215.14,8.22Z"/><path class="cls-6" d="M215.14,5.72c-29.6,0-53.6,21.41-53.6,53.61,0,27.42,34.87,73.17,48.08,87.17a55,55,0,0,0,5.52,5.15s3.73-3.35,6.8-6.68c13.19-14.31,46.81-58.47,46.81-85.64C268.75,27.13,244.75,5.72,215.14,5.72Zm0,74.34a20,20,0,1,1,20-20A20,20,0,0,1,215.14,80.06Z"/><path class="cls-4" d="M215.14,155.46a2.49,2.49,0,0,1-1.86-.83C211.06,152.15,159,93.44,159,59.33c0-16,5.84-30.41,16.46-40.68C185.8,8.7,199.87,3.22,215.14,3.22s29.35,5.48,39.65,15.44c10.61,10.26,16.46,24.7,16.46,40.67,0,34.05-52,92.81-54.24,95.3A2.51,2.51,0,0,1,215.14,155.46Zm0-147.24c-29.61,0-51.1,21.5-51.1,51.11,0,28.73,41.7,78.88,51.1,89.82,9.41-11,51.11-61.15,51.11-89.82C266.25,29.72,244.76,8.22,215.14,8.22Zm0,74.34A22.52,22.52,0,1,1,237.66,60,22.54,22.54,0,0,1,215.14,82.56Zm0-40A17.52,17.52,0,1,0,232.66,60,17.54,17.54,0,0,0,215.14,42.53Z"/><path class="cls-4" d="M215.14,168.88a13.21,13.21,0,0,1-7.64-24l2.9,4.08a8.2,8.2,0,1,0,9.66.12l3-4a13.21,13.21,0,0,1-7.92,23.78Z"/></g></g></svg>